<svg width="88" height="69" viewBox="0 0 88 69" fill="none" xmlns="http://www.w3.org/2000/svg">
<path d="M13.415 32V26.295H1.76V22.795L11.315 8.13H17.93V22.62H21.815V26.295H17.93V32H13.415ZM6.065 22.725C7.06833 22.7017 8.165 22.69 9.355 22.69C10.5683 22.6667 11.9217 22.6433 13.415 22.62V17.825C13.415 16.705 13.415 15.6667 13.415 14.71C13.4383 13.7533 13.4733 12.7267 13.52 11.63H13.345L6.065 22.725ZM25.7495 32V26.225H30.9295V32H25.7495ZM37.0384 32C37.2017 29.69 37.6217 27.4383 38.2984 25.245C38.9984 23.0283 39.955 20.835 41.1684 18.665C42.405 16.4717 43.945 14.2317 45.7884 11.945H32.8384V8.13H50.8984V11.77C48.915 14.1733 47.2934 16.4833 46.0334 18.7C44.7734 20.9167 43.805 23.1217 43.1284 25.315C42.475 27.485 42.1017 29.7133 42.0084 32H37.0384Z" fill="#141414"/>
<path d="M62.86 32.68C63.2973 33.0213 63.7613 33.2827 64.252 33.464C64.7427 33.6347 65.228 33.72 65.708 33.72C66.156 33.72 66.492 33.6507 66.716 33.512C66.9507 33.3627 67.068 33.1493 67.068 32.872C67.068 32.7013 67.0147 32.5573 66.908 32.44C66.812 32.3227 66.6573 32.2267 66.444 32.152C66.2413 32.0667 65.7773 31.9493 65.052 31.8C64.3373 31.6507 63.7933 31.4693 63.42 31.256C63.0573 31.0427 62.7907 30.776 62.62 30.456C62.4493 30.136 62.364 29.7573 62.364 29.32C62.364 28.8293 62.492 28.4027 62.748 28.04C63.0147 27.6773 63.388 27.4 63.868 27.208C64.3587 27.016 64.9187 26.92 65.548 26.92C66.0813 26.92 66.6147 27 67.148 27.16C67.692 27.3093 68.1773 27.5227 68.604 27.8L67.868 29.144C67.5373 28.8987 67.164 28.712 66.748 28.584C66.3427 28.4453 65.932 28.376 65.516 28.376C65.2707 28.376 65.0573 28.408 64.876 28.472C64.6947 28.5253 64.556 28.6107 64.46 28.728C64.364 28.8347 64.316 28.968 64.316 29.128C64.316 29.288 64.364 29.4267 64.46 29.544C64.556 29.6613 64.7053 29.7627 64.908 29.848C65.1213 29.9333 65.5853 30.0507 66.3 30.2C67.0253 30.3387 67.5747 30.5147 67.948 30.728C68.3213 30.9413 68.5933 31.2133 68.764 31.544C68.9453 31.864 69.036 32.248 69.036 32.696C69.036 33.1973 68.9027 33.64 68.636 34.024C68.3693 34.408 67.98 34.7067 67.468 34.92C66.956 35.1227 66.364 35.224 65.692 35.224C65.0627 35.224 64.444 35.128 63.836 34.936C63.228 34.744 62.6413 34.456 62.076 34.072L62.86 32.68ZM75.8836 30.296C75.873 29.9227 75.793 29.592 75.6436 29.304C75.4943 29.016 75.2863 28.792 75.0196 28.632C74.7636 28.472 74.4596 28.392 74.1076 28.392C73.7663 28.392 73.4623 28.4667 73.1956 28.616C72.929 28.7547 72.7156 28.968 72.5556 29.256C72.3956 29.544 72.289 29.8907 72.2356 30.296H75.8836ZM74.2836 35.224C73.4196 35.224 72.6783 35.064 72.0596 34.744C71.441 34.424 70.9663 33.9547 70.6356 33.336C70.3156 32.7067 70.1556 31.96 70.1556 31.096C70.1556 30.264 70.3156 29.5333 70.6356 28.904C70.9556 28.2747 71.4196 27.7893 72.0276 27.448C72.6356 27.096 73.3396 26.92 74.1396 26.92C74.929 26.92 75.6063 27.08 76.1716 27.4C76.737 27.7093 77.169 28.1627 77.4676 28.76C77.7663 29.3467 77.9156 30.0187 77.9156 30.776C77.9156 31.1173 77.889 31.4 77.8356 31.624H72.2036C72.2463 32.0827 72.3583 32.4667 72.5396 32.776C72.7316 33.0853 72.9876 33.32 73.3076 33.48C73.6276 33.64 74.001 33.72 74.4276 33.72C74.929 33.72 75.3876 33.6347 75.8036 33.464C76.2303 33.2933 76.609 33.032 76.9396 32.68L77.7716 33.896C77.2916 34.344 76.7583 34.68 76.1716 34.904C75.585 35.1173 74.9556 35.224 74.2836 35.224ZM86.6913 32.84C86.3073 33.6613 85.8166 34.264 85.2193 34.648C84.6326 35.032 83.9126 35.224 83.0593 35.224C82.2593 35.224 81.5606 35.0587 80.9633 34.728C80.3766 34.3867 79.9286 33.9067 79.6193 33.288C79.3206 32.6587 79.1713 31.928 79.1713 31.096C79.1713 30.264 79.3259 29.5333 79.6353 28.904C79.9553 28.2747 80.4139 27.7893 81.0113 27.448C81.6086 27.096 82.2966 26.92 83.0753 26.92C83.9499 26.92 84.6806 27.112 85.2673 27.496C85.8646 27.8693 86.3019 28.4347 86.5793 29.192L84.8353 29.896C84.6859 29.448 84.4619 29.1067 84.1633 28.872C83.8646 28.6373 83.5019 28.52 83.0753 28.52C82.7019 28.52 82.3713 28.6213 82.0833 28.824C81.7953 29.016 81.5766 29.3093 81.4273 29.704C81.2779 30.088 81.2033 30.5413 81.2033 31.064C81.2033 31.576 81.2779 32.0293 81.4273 32.424C81.5873 32.808 81.8113 33.1067 82.0993 33.32C82.3873 33.5227 82.7286 33.624 83.1233 33.624C83.5499 33.624 83.9126 33.512 84.2113 33.288C84.5206 33.0533 84.7659 32.7067 84.9473 32.248L86.6913 32.84Z" fill="#141414"/>
<path d="M10.1 60.528C10.1 61.7333 9.92933 62.768 9.588 63.632C9.24667 64.4853 8.76133 65.1307 8.132 65.568C7.50267 66.0053 6.76133 66.224 5.908 66.224C5.00133 66.224 4.23867 66.0053 3.62 65.568C3.00133 65.12 2.532 64.4747 2.212 63.632C1.90267 62.7787 1.748 61.7547 1.748 60.56C1.748 59.3547 1.91867 58.3253 2.26 57.472C2.60133 56.608 3.08133 55.9573 3.7 55.52C4.32933 55.0827 5.076 54.864 5.94 54.864C6.84667 54.864 7.60933 55.088 8.228 55.536C8.84667 55.9733 9.31067 56.6187 9.62 57.472C9.94 58.3147 10.1 59.3333 10.1 60.528ZM8.836 60.544C8.836 58.9973 8.59067 57.8347 8.1 57.056C7.62 56.2773 6.89467 55.888 5.924 55.888C4.95333 55.888 4.22267 56.2773 3.732 57.056C3.252 57.8347 3.012 58.9973 3.012 60.544C3.012 62.0907 3.252 63.2533 3.732 64.032C4.22267 64.8 4.95333 65.184 5.924 65.184C6.89467 65.184 7.62 64.8 8.1 64.032C8.59067 63.2533 8.836 62.0907 8.836 60.544ZM12.1278 61.12V59.968H16.6398V61.12H12.1278ZM21.2939 56.976C20.9632 57.2853 20.5579 57.5147 20.0779 57.664C19.5979 57.8027 19.0219 57.872 18.3499 57.872V56.88C18.9472 56.88 19.4539 56.8107 19.8699 56.672C20.2965 56.5333 20.6325 56.3307 20.8779 56.064C21.1339 55.7973 21.3152 55.4507 21.4219 55.024H22.4939V66H21.2939V56.976ZM34.0063 60.528C34.0063 61.7333 33.8356 62.768 33.4943 63.632C33.1529 64.4853 32.6676 65.1307 32.0383 65.568C31.4089 66.0053 30.6676 66.224 29.8143 66.224C28.9076 66.224 28.1449 66.0053 27.5263 65.568C26.9076 65.12 26.4383 64.4747 26.1183 63.632C25.8089 62.7787 25.6543 61.7547 25.6543 60.56C25.6543 59.3547 25.8249 58.3253 26.1663 57.472C26.5076 56.608 26.9876 55.9573 27.6063 55.52C28.2356 55.0827 28.9823 54.864 29.8463 54.864C30.7529 54.864 31.5156 55.088 32.1343 55.536C32.7529 55.9733 33.2169 56.6187 33.5263 57.472C33.8463 58.3147 34.0063 59.3333 34.0063 60.528ZM32.7423 60.544C32.7423 58.9973 32.4969 57.8347 32.0063 57.056C31.5263 56.2773 30.8009 55.888 29.8303 55.888C28.8596 55.888 28.1289 56.2773 27.6383 57.056C27.1583 57.8347 26.9183 58.9973 26.9183 60.544C26.9183 62.0907 27.1583 63.2533 27.6383 64.032C28.1289 64.8 28.8596 65.184 29.8303 65.184C30.8009 65.184 31.5263 64.8 32.0063 64.032C32.4969 63.2533 32.7423 62.0907 32.7423 60.544ZM44.85 60.528C44.85 61.7333 44.6793 62.768 44.338 63.632C43.9967 64.4853 43.5113 65.1307 42.882 65.568C42.2527 66.0053 41.5113 66.224 40.658 66.224C39.7513 66.224 38.9887 66.0053 38.37 65.568C37.7513 65.12 37.282 64.4747 36.962 63.632C36.6527 62.7787 36.498 61.7547 36.498 60.56C36.498 59.3547 36.6687 58.3253 37.01 57.472C37.3513 56.608 37.8313 55.9573 38.45 55.52C39.0793 55.0827 39.826 54.864 40.69 54.864C41.5967 54.864 42.3593 55.088 42.978 55.536C43.5967 55.9733 44.0607 56.6187 44.37 57.472C44.69 58.3147 44.85 59.3333 44.85 60.528ZM43.586 60.544C43.586 58.9973 43.3407 57.8347 42.85 57.056C42.37 56.2773 41.6447 55.888 40.674 55.888C39.7033 55.888 38.9727 56.2773 38.482 57.056C38.002 57.8347 37.762 58.9973 37.762 60.544C37.762 62.0907 38.002 63.2533 38.482 64.032C38.9727 64.8 39.7033 65.184 40.674 65.184C41.6447 65.184 42.37 64.8 42.85 64.032C43.3407 63.2533 43.586 62.0907 43.586 60.544ZM47.4378 54.624H48.5578V61.92L52.4458 58.352H54.0138L51.0058 61.024L54.2858 66H52.8618L50.1578 61.76L48.5578 63.184V66H47.4378V54.624ZM66.0874 66V61.648C66.0874 61.1787 66.066 60.832 66.0234 60.608C65.9807 60.384 65.9167 60.176 65.8314 59.984C65.682 59.696 65.4687 59.4773 65.1914 59.328C64.9247 59.1787 64.6047 59.104 64.2314 59.104C63.954 59.104 63.6874 59.1573 63.4314 59.264C63.1754 59.36 62.9674 59.4933 62.8074 59.664C62.53 59.9413 62.3274 60.288 62.1994 60.704C62.0714 61.1093 62.0074 61.6587 62.0074 62.352V66H60.8874V61.648C60.8874 61.1787 60.866 60.832 60.8234 60.608C60.7914 60.384 60.7274 60.176 60.6314 59.984C60.4927 59.696 60.2847 59.4773 60.0074 59.328C59.7407 59.1787 59.4207 59.104 59.0474 59.104C58.77 59.104 58.498 59.1573 58.2314 59.264C57.9754 59.36 57.7674 59.4933 57.6074 59.664C57.33 59.9413 57.1274 60.288 56.9994 60.704C56.882 61.1093 56.8234 61.6587 56.8234 62.352V66H55.7034V62.144C55.7034 61.7067 55.7034 61.3067 55.7034 60.944C55.7034 60.5813 55.698 60.2507 55.6874 59.952C55.6874 59.6533 55.682 59.376 55.6714 59.12C55.6714 58.8533 55.666 58.5973 55.6554 58.352H56.7434L56.7754 59.488H56.7914C57.0367 59.0613 57.3727 58.7307 57.7994 58.496C58.226 58.2613 58.7114 58.144 59.2554 58.144C59.874 58.144 60.3967 58.2773 60.8234 58.544C61.2607 58.8 61.5754 59.184 61.7674 59.696C62.0767 59.1733 62.4554 58.784 62.9034 58.528C63.3514 58.272 63.8687 58.144 64.4554 58.144C65.3514 58.144 66.034 58.4053 66.5034 58.928C66.9727 59.44 67.2074 60.1973 67.2074 61.2V66H66.0874ZM67.7171 68.624L73.8771 53.552H75.0291L68.8691 68.624H67.7171ZM76.0628 54.624H77.1828V57.984C77.1828 58.6027 77.1668 59.104 77.1348 59.488H77.1508C77.4068 59.0613 77.7481 58.7307 78.1748 58.496C78.6014 58.2613 79.0921 58.144 79.6468 58.144C80.2441 58.144 80.7508 58.2613 81.1668 58.496C81.5828 58.72 81.8974 59.0613 82.1108 59.52C82.3241 59.968 82.4308 60.528 82.4308 61.2V66H81.3108V61.648C81.3108 61.1787 81.2894 60.832 81.2468 60.608C81.2148 60.384 81.1508 60.176 81.0548 59.984C80.9161 59.696 80.7081 59.4773 80.4308 59.328C80.1534 59.1787 79.8228 59.104 79.4388 59.104C79.1508 59.104 78.8734 59.1573 78.6068 59.264C78.3508 59.36 78.1374 59.4933 77.9668 59.664C77.6894 59.9413 77.4868 60.288 77.3588 60.704C77.2414 61.1093 77.1828 61.6587 77.1828 62.352V66H76.0628V54.624Z" fill="#888B8D"/>
</svg>
