<svg width="100" height="72" viewBox="0 0 100 72" fill="none" xmlns="http://www.w3.org/2000/svg">
<path d="M16.4002 13.765C15.6769 14.3017 14.8135 14.6983 13.8102 14.955C12.8302 15.2117 11.6635 15.34 10.3102 15.34V11.63C11.5935 11.63 12.6785 11.5017 13.5652 11.245C14.4519 10.9883 15.1635 10.615 15.7002 10.125C16.2602 9.635 16.7035 8.94667 17.0302 8.06H21.1252V32H16.4002V13.765ZM46.7862 19.995C46.7862 22.6317 46.3779 24.895 45.5612 26.785C44.7445 28.675 43.5662 30.11 42.0262 31.09C40.4862 32.07 38.6662 32.56 36.5662 32.56C34.4429 32.56 32.6229 32.0817 31.1062 31.125C29.6129 30.145 28.4812 28.7217 27.7112 26.855C26.9645 24.9883 26.5912 22.7483 26.5912 20.135C26.5912 17.4983 26.9995 15.235 27.8162 13.345C28.6329 11.455 29.8112 10.02 31.3512 9.04C32.8912 8.06 34.7112 7.57 36.8112 7.57C38.9345 7.57 40.7429 8.06 42.2362 9.04C43.7529 9.99667 44.8845 11.4083 45.6312 13.275C46.4012 15.1417 46.7862 17.3817 46.7862 19.995ZM41.9912 20.1C41.9912 17.2067 41.5479 15.0483 40.6612 13.625C39.7979 12.2017 38.4679 11.49 36.6712 11.49C34.8979 11.49 33.5679 12.2017 32.6812 13.625C31.8179 15.025 31.3862 17.16 31.3862 20.03C31.3862 22.9233 31.8179 25.0817 32.6812 26.505C33.5679 27.9283 34.8979 28.64 36.6712 28.64C38.4679 28.64 39.7979 27.94 40.6612 26.54C41.5479 25.1167 41.9912 22.97 41.9912 20.1ZM71.1905 19.995C71.1905 22.6317 70.7822 24.895 69.9655 26.785C69.1488 28.675 67.9705 30.11 66.4305 31.09C64.8905 32.07 63.0705 32.56 60.9705 32.56C58.8472 32.56 57.0272 32.0817 55.5105 31.125C54.0172 30.145 52.8855 28.7217 52.1155 26.855C51.3688 24.9883 50.9955 22.7483 50.9955 20.135C50.9955 17.4983 51.4038 15.235 52.2205 13.345C53.0372 11.455 54.2155 10.02 55.7555 9.04C57.2955 8.06 59.1155 7.57 61.2155 7.57C63.3388 7.57 65.1472 8.06 66.6405 9.04C68.1572 9.99667 69.2888 11.4083 70.0355 13.275C70.8055 15.1417 71.1905 17.3817 71.1905 19.995ZM66.3955 20.1C66.3955 17.2067 65.9522 15.0483 65.0655 13.625C64.2022 12.2017 62.8722 11.49 61.0755 11.49C59.3022 11.49 57.9722 12.2017 57.0855 13.625C56.2222 15.025 55.7905 17.16 55.7905 20.03C55.7905 22.9233 56.2222 25.0817 57.0855 26.505C57.9722 27.9283 59.3022 28.64 61.0755 28.64C62.8722 28.64 64.2022 27.94 65.0655 26.54C65.9522 25.1167 66.3955 22.97 66.3955 20.1Z" fill="#141414"/>
<path d="M89.084 26.04C89.084 27.2027 88.7853 28.1147 88.188 28.776C87.5907 29.4267 86.7693 29.752 85.724 29.752C84.668 29.752 83.8573 29.4373 83.292 28.808C82.7373 28.168 82.46 27.2667 82.46 26.104C82.46 24.9413 82.7533 24.0347 83.34 23.384C83.9373 22.7227 84.764 22.392 85.82 22.392C86.8653 22.392 87.6707 22.712 88.236 23.352C88.8013 23.9813 89.084 24.8773 89.084 26.04ZM87.212 26.072C87.212 25.368 87.0893 24.8347 86.844 24.472C86.5987 24.0987 86.2413 23.912 85.772 23.912C85.3027 23.912 84.94 24.0987 84.684 24.472C84.4387 24.8347 84.316 25.368 84.316 26.072C84.316 26.776 84.4387 27.3147 84.684 27.688C84.94 28.0507 85.3027 28.232 85.772 28.232C86.2413 28.232 86.5987 28.0507 86.844 27.688C87.0893 27.3147 87.212 26.776 87.212 26.072ZM95.852 22.552L87.164 36.536H85.084L93.772 22.552H95.852ZM98.492 32.984C98.492 34.1467 98.1933 35.0533 97.596 35.704C96.9987 36.3653 96.1773 36.696 95.132 36.696C94.076 36.696 93.2653 36.376 92.7 35.736C92.1453 35.1067 91.868 34.2107 91.868 33.048C91.868 31.8853 92.1613 30.9787 92.748 30.328C93.3453 29.6667 94.172 29.336 95.228 29.336C96.2733 29.336 97.0787 29.656 97.644 30.296C98.2093 30.9253 98.492 31.8213 98.492 32.984ZM96.62 33.016C96.62 32.312 96.4973 31.7787 96.252 31.416C96.0067 31.0427 95.6493 30.856 95.18 30.856C94.7107 30.856 94.348 31.0427 94.092 31.416C93.8467 31.7787 93.724 32.312 93.724 33.016C93.724 33.72 93.8467 34.2587 94.092 34.632C94.348 34.9947 94.7107 35.176 95.18 35.176C95.6493 35.176 96.0067 34.9947 96.252 34.632C96.4973 34.2587 96.62 33.72 96.62 33.016Z" fill="#141414"/>
<path d="M2.196 67H8.468V66.168H3.156V55.336H2.196V67ZM13.5359 67.208C14.7679 67.208 15.5679 66.808 16.2559 66.376L15.9039 65.688C15.2639 66.136 14.5439 66.424 13.6319 66.424C11.7919 66.424 10.5599 64.968 10.5119 62.888H16.5599C16.5919 62.68 16.6079 62.456 16.6079 62.216C16.6079 59.72 15.3759 58.248 13.3119 58.248C11.3759 58.248 9.56788 59.976 9.56788 62.744C9.56788 65.544 11.3439 67.208 13.5359 67.208ZM10.5119 62.152C10.6879 60.2 11.9359 59.048 13.3279 59.048C14.8159 59.048 15.7599 60.088 15.7599 62.152H10.5119ZM20.5036 67.208C21.5916 67.208 22.6156 66.616 23.4796 65.912H23.5116L23.6076 67H24.3916V61.592C24.3916 59.704 23.6716 58.248 21.6396 58.248C20.2476 58.248 19.0636 58.92 18.4076 59.368L18.8236 60.04C19.4156 59.592 20.3916 59.064 21.5116 59.064C23.1276 59.064 23.4956 60.376 23.4636 61.64C19.7036 62.072 18.0236 62.968 18.0236 64.856C18.0236 66.44 19.1276 67.208 20.5036 67.208ZM20.6956 66.424C19.7516 66.424 18.9516 65.976 18.9516 64.808C18.9516 63.496 20.1036 62.712 23.4636 62.328V65.096C22.4556 65.976 21.6396 66.424 20.6956 66.424ZM29.5625 67.208C29.9465 67.208 30.4905 67.064 30.9865 66.888L30.7625 66.168C30.4585 66.296 30.0425 66.408 29.7225 66.408C28.5865 66.408 28.2985 65.704 28.2985 64.632V59.256H30.7465V58.472H28.2985V56.008H27.5145L27.4025 58.472L26.0425 58.552V59.256H27.3705V64.568C27.3705 66.152 27.8825 67.208 29.5625 67.208ZM32.7875 67H33.7155V60.616C34.7075 59.592 35.4115 59.08 36.4035 59.08C37.7155 59.08 38.2755 59.896 38.2755 61.672V67H39.2035V61.544C39.2035 59.352 38.3875 58.248 36.6115 58.248C35.4435 58.248 34.5635 58.92 33.6995 59.784L33.7155 57.928V54.28H32.7875V67ZM45.4734 67.208C46.7054 67.208 47.5054 66.808 48.1934 66.376L47.8414 65.688C47.2014 66.136 46.4814 66.424 45.5694 66.424C43.7294 66.424 42.4974 64.968 42.4494 62.888H48.4974C48.5294 62.68 48.5454 62.456 48.5454 62.216C48.5454 59.72 47.3134 58.248 45.2494 58.248C43.3134 58.248 41.5054 59.976 41.5054 62.744C41.5054 65.544 43.2814 67.208 45.4734 67.208ZM42.4494 62.152C42.6254 60.2 43.8734 59.048 45.2654 59.048C46.7534 59.048 47.6974 60.088 47.6974 62.152H42.4494ZM50.8188 67H51.7468V61.272C52.3708 59.688 53.2828 59.128 54.0348 59.128C54.3708 59.128 54.5308 59.16 54.8188 59.272L55.0108 58.44C54.7388 58.296 54.4828 58.248 54.1468 58.248C53.1548 58.248 52.3068 58.984 51.7308 60.056H51.6988L51.5868 58.472H50.8188V67ZM60.2116 67H61.1716V61.464H65.7956V60.648H61.1716V56.152H66.6436V55.336H60.2116V67ZM68.2719 67H69.1999V61.272C69.8239 59.688 70.7359 59.128 71.4879 59.128C71.8239 59.128 71.9839 59.16 72.2719 59.272L72.4639 58.44C72.1919 58.296 71.9359 58.248 71.5999 58.248C70.6079 58.248 69.7599 58.984 69.1839 60.056H69.1519L69.0399 58.472H68.2719V67ZM77.114 67.208C78.346 67.208 79.146 66.808 79.834 66.376L79.482 65.688C78.842 66.136 78.122 66.424 77.21 66.424C75.37 66.424 74.138 64.968 74.09 62.888H80.138C80.17 62.68 80.186 62.456 80.186 62.216C80.186 59.72 78.954 58.248 76.89 58.248C74.954 58.248 73.146 59.976 73.146 62.744C73.146 65.544 74.922 67.208 77.114 67.208ZM74.09 62.152C74.266 60.2 75.514 59.048 76.906 59.048C78.394 59.048 79.338 60.088 79.338 62.152H74.09ZM85.7234 67.208C86.9554 67.208 87.7554 66.808 88.4434 66.376L88.0914 65.688C87.4514 66.136 86.7314 66.424 85.8194 66.424C83.9794 66.424 82.7474 64.968 82.6994 62.888H88.7474C88.7794 62.68 88.7954 62.456 88.7954 62.216C88.7954 59.72 87.5634 58.248 85.4994 58.248C83.5634 58.248 81.7554 59.976 81.7554 62.744C81.7554 65.544 83.5314 67.208 85.7234 67.208ZM82.6994 62.152C82.8754 60.2 84.1234 59.048 85.5154 59.048C87.0034 59.048 87.9474 60.088 87.9474 62.152H82.6994Z" fill="#888B8D"/>
</svg>
