<svg width="100" height="72" viewBox="0 0 100 72" fill="none" xmlns="http://www.w3.org/2000/svg">
<path d="M13.727 32V26.295H2.07201V22.795L11.627 8.13H18.242V22.62H22.127V26.295H18.242V32H13.727ZM6.37701 22.725C7.38035 22.7017 8.47701 22.69 9.66701 22.69C10.8803 22.6667 12.2337 22.6433 13.727 22.62V17.825C13.727 16.705 13.727 15.6667 13.727 14.71C13.7503 13.7533 13.7853 12.7267 13.832 11.63H13.657L6.37701 22.725ZM45.8365 19.995C45.8365 22.6317 45.4282 24.895 44.6115 26.785C43.7948 28.675 42.6165 30.11 41.0765 31.09C39.5365 32.07 37.7165 32.56 35.6165 32.56C33.4932 32.56 31.6732 32.0817 30.1565 31.125C28.6632 30.145 27.5315 28.7217 26.7615 26.855C26.0148 24.9883 25.6415 22.7483 25.6415 20.135C25.6415 17.4983 26.0498 15.235 26.8665 13.345C27.6832 11.455 28.8615 10.02 30.4015 9.04C31.9415 8.06 33.7615 7.57 35.8615 7.57C37.9848 7.57 39.7932 8.06 41.2865 9.04C42.8032 9.99667 43.9348 11.4083 44.6815 13.275C45.4515 15.1417 45.8365 17.3817 45.8365 19.995ZM41.0415 20.1C41.0415 17.2067 40.5982 15.0483 39.7115 13.625C38.8482 12.2017 37.5182 11.49 35.7215 11.49C33.9482 11.49 32.6182 12.2017 31.7315 13.625C30.8682 15.025 30.4365 17.16 30.4365 20.03C30.4365 22.9233 30.8682 25.0817 31.7315 26.505C32.6182 27.9283 33.9482 28.64 35.7215 28.64C37.5182 28.64 38.8482 27.94 39.7115 26.54C40.5982 25.1167 41.0415 22.97 41.0415 20.1ZM63.9408 14.57C63.9408 13.5433 63.5441 12.715 62.7508 12.085C61.9575 11.455 60.8841 11.14 59.5308 11.14C58.2008 11.14 57.1391 11.455 56.3458 12.085C55.5525 12.715 55.1558 13.5433 55.1558 14.57C55.1558 15.62 55.5525 16.46 56.3458 17.09C57.1391 17.6967 58.2008 18 59.5308 18C60.9075 18 61.9808 17.6967 62.7508 17.09C63.5441 16.46 63.9408 15.62 63.9408 14.57ZM64.5358 25.245C64.5358 24.1017 64.0925 23.2033 63.2058 22.55C62.3191 21.8733 61.0941 21.535 59.5308 21.535C57.9908 21.535 56.7775 21.8733 55.8908 22.55C55.0275 23.2033 54.5958 24.1017 54.5958 25.245C54.5958 26.4117 55.0391 27.3333 55.9258 28.01C56.8125 28.6633 58.0258 28.99 59.5658 28.99C61.1058 28.99 62.3191 28.6517 63.2058 27.975C64.0925 27.2983 64.5358 26.3883 64.5358 25.245ZM69.3308 25.21C69.3308 26.7267 68.9341 28.045 68.1408 29.165C67.3475 30.2617 66.2041 31.1017 64.7108 31.685C63.2175 32.2683 61.4675 32.56 59.4608 32.56C57.4541 32.56 55.7158 32.2917 54.2458 31.755C52.7991 31.2183 51.6908 30.4133 50.9208 29.34C50.1741 28.2667 49.8008 26.995 49.8008 25.525C49.8008 24.1483 50.1858 22.9583 50.9558 21.955C51.7258 20.9283 52.8225 20.1583 54.2458 19.645V19.575C53.0791 19.1783 52.1575 18.525 51.4808 17.615C50.8041 16.705 50.4658 15.6433 50.4658 14.43C50.4658 13.0767 50.8391 11.8867 51.5858 10.86C52.3325 9.81 53.4058 9.005 54.8058 8.445C56.2058 7.86167 57.8158 7.57 59.6358 7.57C61.5025 7.57 63.1125 7.85 64.4658 8.41C65.8425 8.94667 66.8808 9.72833 67.5808 10.755C68.3041 11.7817 68.6658 12.9717 68.6658 14.325C68.6658 15.445 68.3275 16.4717 67.6508 17.405C66.9741 18.3383 66.0525 19.0383 64.8858 19.505V19.575C66.3325 20.0183 67.4291 20.73 68.1758 21.71C68.9458 22.6667 69.3308 23.8333 69.3308 25.21Z" fill="#141414"/>
<path d="M80.668 23.704H82.588V26.616C82.588 27.1813 82.5613 27.688 82.508 28.136H82.524C82.78 27.752 83.1213 27.4533 83.548 27.24C83.9853 27.0267 84.4653 26.92 84.988 26.92C85.6067 26.92 86.1347 27.0427 86.572 27.288C87.0093 27.5227 87.34 27.88 87.564 28.36C87.788 28.8293 87.9 29.4213 87.9 30.136V35H85.98V30.84C85.98 30.328 85.964 29.9707 85.932 29.768C85.9 29.5653 85.8467 29.3787 85.772 29.208C85.6547 28.9733 85.484 28.7973 85.26 28.68C85.036 28.552 84.764 28.488 84.444 28.488C84.1987 28.488 83.9693 28.5307 83.756 28.616C83.5427 28.7013 83.372 28.808 83.244 28.936C83.0093 29.1707 82.8387 29.4587 82.732 29.8C82.636 30.1413 82.588 30.5893 82.588 31.144V35H80.668V23.704ZM90.1055 38.072V31.064C90.1055 30.4133 90.1002 29.752 90.0895 29.08C90.0895 28.408 90.0788 27.768 90.0575 27.16H91.8655L91.8975 28.2H91.9135C92.1695 27.784 92.5162 27.4693 92.9535 27.256C93.4015 27.032 93.9028 26.92 94.4575 26.92C95.1508 26.92 95.7588 27.0907 96.2815 27.432C96.8148 27.7627 97.2255 28.2427 97.5135 28.872C97.8015 29.5013 97.9455 30.2267 97.9455 31.048C97.9455 31.8693 97.7962 32.6 97.4975 33.24C97.1988 33.8693 96.7722 34.36 96.2175 34.712C95.6628 35.0533 95.0175 35.224 94.2815 35.224C93.7908 35.224 93.3482 35.1333 92.9535 34.952C92.5588 34.7707 92.2388 34.5147 91.9935 34.184H91.9775C92.0095 34.5787 92.0255 35.032 92.0255 35.544V38.072H90.1055ZM91.9935 31.224C91.9935 31.7147 92.0735 32.1467 92.2335 32.52C92.4042 32.8933 92.6388 33.1813 92.9375 33.384C93.2362 33.576 93.5775 33.672 93.9615 33.672C94.3668 33.672 94.7135 33.5707 95.0015 33.368C95.3002 33.1547 95.5242 32.8507 95.6735 32.456C95.8228 32.0613 95.8975 31.5973 95.8975 31.064C95.8975 30.5413 95.8122 30.0827 95.6415 29.688C95.4815 29.2933 95.2522 28.9947 94.9535 28.792C94.6548 28.5893 94.3028 28.488 93.8975 28.488C93.5242 28.488 93.1882 28.5893 92.8895 28.792C92.6015 28.984 92.3775 29.2667 92.2175 29.64C92.0682 30.0027 91.9935 30.44 91.9935 30.952V31.224Z" fill="#141414"/>
<path d="M3.02 63.784C2.828 65.08 2.556 66.504 2.172 67.512C2.364 67.576 2.7 67.688 2.844 67.768C3.18 66.776 3.516 65.272 3.724 63.912L3.02 63.784ZM4.732 63.864C4.908 64.952 5.1 66.408 5.148 67.352L5.836 67.224C5.788 66.28 5.58 64.856 5.388 63.752L4.732 63.864ZM6.38 63.544C6.732 64.488 7.1 65.704 7.26 66.504L7.916 66.28C7.772 65.512 7.356 64.296 7.004 63.368L6.38 63.544ZM6.22 59.8C6.444 60.328 6.684 60.936 6.876 61.512L3.66 61.96C5.004 60.488 6.332 58.552 7.5 56.584L6.796 56.216C6.428 56.92 5.996 57.64 5.548 58.296L3.42 58.52C4.396 57.24 5.372 55.592 6.188 53.976L5.436 53.64C4.7 55.416 3.468 57.288 3.116 57.784C2.764 58.264 2.46 58.616 2.22 58.68C2.316 58.872 2.428 59.256 2.46 59.432C2.684 59.336 3.036 59.256 5.084 59.016C4.38 60.024 3.756 60.84 3.468 61.16C3.004 61.72 2.604 62.152 2.316 62.216C2.396 62.408 2.524 62.808 2.572 62.984C2.86 62.84 3.292 62.728 7.068 62.136C7.18 62.504 7.276 62.856 7.34 63.144L8.044 62.888C7.836 62.072 7.356 60.664 6.86 59.624L6.22 59.8ZM13.676 67.288C13.42 67.288 13.244 67.256 13.052 67.192C12.86 67.096 12.78 66.728 12.78 66.168V63.528H15.292V64.6H15.996V58.392H15.292V62.808H12.78V56.68H16.732V55.944H12.78V53.704H12.06V55.944H8.588V56.68H12.06V62.808H9.66V58.392H8.972V63.528H12.06V65.992C12.06 67.32 12.204 67.608 12.508 67.752C12.828 67.928 13.26 67.976 13.596 67.976H14.892C15.276 67.976 15.692 67.96 15.996 67.864C16.268 67.784 16.46 67.624 16.556 67.304C16.668 67.032 16.748 66.248 16.764 65.64C16.508 65.576 16.252 65.448 16.06 65.304C16.044 66.04 15.996 66.584 15.948 66.824C15.884 67.064 15.724 67.176 15.58 67.224C15.436 67.272 15.1 67.288 14.812 67.288H13.676ZM30.86 53.768C28.972 54.312 25.452 54.744 22.524 55.016C22.604 55.176 22.7 55.448 22.732 55.624C25.692 55.384 29.244 54.952 31.436 54.376L30.86 53.768ZM29.996 58.2C30.412 57.528 30.94 56.536 31.356 55.656L30.652 55.384C30.364 56.136 29.804 57.288 29.388 57.96L29.996 58.2ZM27.708 58.04C27.58 57.448 27.26 56.52 26.908 55.832L26.316 55.992C26.636 56.712 26.972 57.64 27.068 58.248L27.708 58.04ZM24.7 58.136C24.556 57.56 24.204 56.744 23.836 56.104L23.26 56.328C23.612 56.968 23.948 57.816 24.076 58.376L24.7 58.136ZM22.252 55.704C21.66 55.128 20.428 54.36 19.388 53.864L18.988 54.408C20.012 54.92 21.228 55.736 21.82 56.328L22.252 55.704ZM21.468 59.88C20.844 59.336 19.596 58.648 18.604 58.232L18.188 58.792C19.228 59.24 20.428 59.976 21.052 60.536L21.468 59.88ZM19.084 67.944C19.964 66.552 21.052 64.568 21.852 62.952L21.324 62.456C20.46 64.168 19.292 66.232 18.476 67.432L19.084 67.944ZM30.652 63.64H27.58V61.848H30.652V63.64ZM27.58 59.368H30.652V61.144H27.58V59.368ZM32.764 61.144H31.34V58.696H23.068V59.368H26.828V61.144H22.092V61.848H26.828V63.64H23.036V64.312H26.828V66.936C26.828 67.176 26.764 67.24 26.508 67.256C26.252 67.256 25.404 67.272 24.38 67.24C24.492 67.464 24.604 67.768 24.668 67.992C25.868 67.992 26.636 67.992 27.052 67.848C27.436 67.72 27.58 67.496 27.58 66.936V64.312H31.34V61.848H32.764V61.144ZM35.452 62.36V60.92H37.9V62.36H35.452ZM35.452 58.92H37.9V60.312H35.452V58.92ZM41.196 58.92V60.312H38.636V58.92H41.196ZM41.196 62.36H38.636V60.92H41.196V62.36ZM48.396 57.48H44.908C44.94 56.296 44.956 55.08 44.956 53.832H44.22C44.22 55.08 44.22 56.296 44.172 57.48H42.028V58.2H44.156C43.996 61.352 43.532 64.152 41.996 66.168V65.992C40.876 66.12 39.724 66.264 38.636 66.376V64.808H41.9V64.152H38.636V62.968H41.884V58.296H38.636V57.064H42.22V56.408H38.636V55C39.868 54.856 41.02 54.696 41.884 54.488L41.436 53.896C39.836 54.264 36.86 54.536 34.508 54.68C34.588 54.84 34.684 55.112 34.716 55.288C35.708 55.24 36.828 55.176 37.9 55.064V56.408H34.268V57.064H37.9V58.296H34.764V62.968H37.9V64.152H34.732V64.808H37.9V66.456C36.54 66.616 35.276 66.744 34.3 66.84L34.428 67.56C36.316 67.336 38.988 67.016 41.564 66.696C41.228 67.064 40.828 67.4 40.396 67.704C40.604 67.816 40.892 68.056 41.02 68.216C43.964 66.104 44.684 62.456 44.876 58.2H47.628C47.436 64.44 47.244 66.648 46.828 67.16C46.684 67.336 46.54 67.368 46.252 67.368C45.948 67.368 45.18 67.368 44.348 67.304C44.46 67.512 44.556 67.832 44.572 68.04C45.308 68.088 46.076 68.104 46.492 68.072C46.956 68.04 47.244 67.944 47.484 67.592C48.012 66.936 48.188 64.76 48.396 57.928V57.48ZM57.1 57.272C57.116 56.888 57.116 56.536 57.116 56.168V53.72H56.332V56.168C56.332 56.536 56.332 56.888 56.316 57.272H50.924V58.04H56.268C56.06 61.16 55.052 64.792 50.46 67.64C50.652 67.768 50.924 68.04 51.052 68.232C55.788 65.256 56.844 61.368 57.068 58.04H63.084C62.732 64.2 62.364 66.536 61.756 67.128C61.564 67.32 61.356 67.352 61.02 67.352C60.62 67.352 59.564 67.352 58.412 67.24C58.572 67.464 58.652 67.784 58.684 68.008C59.676 68.088 60.7 68.12 61.228 68.088C61.788 68.056 62.108 67.96 62.444 67.592C63.148 66.824 63.484 64.472 63.884 57.72C63.884 57.608 63.9 57.272 63.9 57.272H57.1Z" fill="#888B8D"/>
</svg>
