<svg width="105" height="76" fill="none" xmlns="http://www.w3.org/2000/svg"><path d="M18.227 32v-5.705H6.572v-3.5L16.127 8.13h6.615v14.49h3.885v3.675h-3.885V32h-4.515zm-7.35-9.275c1.003-.023 2.1-.035 3.29-.035 1.213-.023 2.567-.047 4.06-.07v-7.91c.023-.957.058-1.983.105-3.08h-.175l-7.28 11.095zm39.46-2.73c0 2.637-.409 4.9-1.226 6.79-.816 1.89-1.994 3.325-3.534 4.305-1.54.98-3.36 1.47-5.46 1.47-2.124 0-3.944-.478-5.46-1.435-1.494-.98-2.625-2.403-3.395-4.27-.747-1.867-1.12-4.107-1.12-6.72 0-2.637.408-4.9 1.224-6.79.817-1.89 1.995-3.325 3.535-4.305 1.54-.98 3.36-1.47 5.46-1.47 2.124 0 3.932.49 5.425 1.47 1.517.957 2.649 2.368 3.395 4.235.77 1.867 1.156 4.107 1.156 6.72zm-4.796.105c0-2.893-.443-5.052-1.33-6.475-.863-1.423-2.193-2.135-3.99-2.135-1.773 0-3.103.712-3.99 2.135-.863 1.4-1.294 3.535-1.294 6.405 0 2.893.431 5.052 1.294 6.475.887 1.423 2.217 2.135 3.99 2.135 1.797 0 3.127-.7 3.99-2.1.887-1.423 1.33-3.57 1.33-6.44zm22.9-5.53c0-1.027-.397-1.855-1.19-2.485-.794-.63-1.867-.945-3.22-.945-1.33 0-2.392.315-3.185.945-.793.63-1.19 1.458-1.19 2.485 0 1.05.397 1.89 1.19 2.52.793.607 1.855.91 3.185.91 1.376 0 2.45-.303 3.22-.91.793-.63 1.19-1.47 1.19-2.52zm.595 10.675c0-1.143-.444-2.042-1.33-2.695-.887-.677-2.112-1.015-3.675-1.015-1.54 0-2.754.338-3.64 1.015-.863.653-1.295 1.552-1.295 2.695 0 1.167.443 2.088 1.33 2.765.886.653 2.1.98 3.64.98s2.753-.338 3.64-1.015c.886-.677 1.33-1.587 1.33-2.73zm4.795-.035c0 1.517-.397 2.835-1.19 3.955-.794 1.097-1.937 1.937-3.43 2.52s-3.243.875-5.25.875-3.745-.268-5.215-.805c-1.447-.537-2.555-1.342-3.325-2.415-.747-1.073-1.12-2.345-1.12-3.815 0-1.377.385-2.567 1.155-3.57.77-1.027 1.866-1.797 3.29-2.31v-.07c-1.167-.397-2.089-1.05-2.765-1.96-.677-.91-1.015-1.972-1.015-3.185 0-1.353.373-2.543 1.12-3.57.747-1.05 1.82-1.855 3.22-2.415 1.4-.583 3.01-.875 4.83-.875 1.867 0 3.477.28 4.83.84 1.377.537 2.415 1.318 3.115 2.345.723 1.027 1.085 2.217 1.085 3.57 0 1.12-.338 2.147-1.015 3.08-.677.933-1.599 1.633-2.765 2.1v.07c1.447.443 2.543 1.155 3.29 2.135.77.957 1.155 2.123 1.155 3.5zm12.337 2.494h1.92v2.912c0 .565-.027 1.072-.08 1.52h.016a2.607 2.607 0 011.024-.896 3.24 3.24 0 011.44-.32c.619 0 1.147.123 1.584.368.437.235.768.592.992 1.072.224.47.336 1.061.336 1.776V39h-1.92v-4.16c0-.512-.016-.87-.048-1.072a2.276 2.276 0 00-.16-.56 1.168 1.168 0 00-.512-.528c-.224-.128-.496-.192-.816-.192-.245 0-.475.043-.688.128a1.502 1.502 0 00-.512.32 2.074 2.074 0 00-.512.864c-.096.341-.144.79-.144 1.344V39h-1.92V27.704zm9.438 14.368v-7.008c0-.65-.006-1.312-.016-1.984 0-.672-.011-1.312-.032-1.92h1.807l.032 1.04h.016a2.47 2.47 0 011.04-.944c.448-.224.95-.336 1.504-.336.694 0 1.302.17 1.825.512.533.33.944.81 1.232 1.44.288.63.432 1.355.432 2.176 0 .821-.15 1.552-.448 2.192a3.457 3.457 0 01-1.28 1.472c-.555.341-1.2.512-1.937.512-.49 0-.933-.09-1.328-.272a2.438 2.438 0 01-.96-.768h-.015c.032.395.047.848.047 1.36v2.528h-1.92zm1.888-6.848c0 .49.08.923.24 1.296.17.373.405.661.704.864.298.192.64.288 1.023.288.406 0 .753-.101 1.041-.304.298-.213.522-.517.672-.912.149-.395.224-.859.224-1.392 0-.523-.086-.981-.256-1.376-.16-.395-.39-.693-.688-.896a1.837 1.837 0 00-1.056-.304c-.374 0-.71.101-1.008.304-.288.192-.513.475-.672.848-.15.363-.225.8-.225 1.312v.272z" fill="#141414"/><path d="M1.52 67.784c-.192 1.296-.464 2.72-.848 3.728.192.064.528.176.672.256.336-.992.672-2.496.88-3.856l-.704-.128zm1.712.08c.176 1.088.368 2.544.416 3.488l.688-.128c-.048-.944-.256-2.368-.448-3.472l-.656.112zm1.648-.32c.352.944.72 2.16.88 2.96l.656-.224c-.144-.768-.56-1.984-.912-2.912l-.624.176zM4.72 63.8c.224.528.464 1.136.656 1.712l-3.216.448c1.344-1.472 2.672-3.408 3.84-5.376l-.704-.368a21.04 21.04 0 01-1.248 2.08l-2.128.224c.976-1.28 1.952-2.928 2.768-4.544l-.752-.336c-.736 1.776-1.968 3.648-2.32 4.144-.352.48-.656.832-.896.896.096.192.208.576.24.752.224-.096.576-.176 2.624-.416-.704 1.008-1.328 1.824-1.616 2.144-.464.56-.864.992-1.152 1.056.08.192.208.592.256.768.288-.144.72-.256 4.496-.848.112.368.208.72.272 1.008l.704-.256a20.621 20.621 0 00-1.184-3.264l-.64.176zm7.456 7.488c-.256 0-.432-.032-.624-.096-.192-.096-.272-.464-.272-1.024v-2.64h2.512V68.6h.704v-6.208h-.704v4.416H11.28V60.68h3.952v-.736H11.28v-2.24h-.72v2.24H7.088v.736h3.472v6.128h-2.4v-4.416h-.688v5.136h3.088v2.464c0 1.328.144 1.616.448 1.76.32.176.752.224 1.088.224h1.296c.384 0 .8-.016 1.104-.112a.765.765 0 00.56-.56c.112-.272.192-1.056.208-1.664a2.05 2.05 0 01-.704-.336c-.016.736-.064 1.28-.112 1.52a.55.55 0 01-.368.4c-.144.048-.48.064-.768.064h-1.136zm17.184-13.52c-1.888.544-5.408.976-8.336 1.248.08.16.176.432.208.608 2.96-.24 6.512-.672 8.704-1.248l-.576-.608zm-.864 4.432a28.24 28.24 0 001.36-2.544l-.704-.272c-.288.752-.848 1.904-1.264 2.576l.608.24zm-2.288-.16a10.338 10.338 0 00-.8-2.208l-.592.16c.32.72.656 1.648.752 2.256l.64-.208zm-3.008.096c-.144-.576-.496-1.392-.864-2.032l-.576.224c.352.64.688 1.488.816 2.048l.624-.24zm-2.448-2.432c-.592-.576-1.824-1.344-2.864-1.84l-.4.544c1.024.512 2.24 1.328 2.832 1.92l.432-.624zm-.784 4.176c-.624-.544-1.872-1.232-2.864-1.648l-.416.56c1.04.448 2.24 1.184 2.864 1.744l.416-.656zm-2.384 8.064c.88-1.392 1.968-3.376 2.768-4.992l-.528-.496c-.864 1.712-2.032 3.776-2.848 4.976l.608.512zm11.568-4.304H26.08v-1.792h3.072v1.792zm-3.072-4.272h3.072v1.776H26.08v-1.776zm5.184 1.776H29.84v-2.448h-8.272v.672h3.76v1.776h-4.736v.704h4.736v1.792h-3.792v.672h3.792v2.624c0 .24-.064.304-.32.32-.256 0-1.104.016-2.128-.016.112.224.224.528.288.752 1.2 0 1.968 0 2.384-.144.384-.128.528-.352.528-.912v-2.624h3.76v-2.464h1.424v-.704zm2.688 1.216v-1.44H36.4v1.44h-2.448zm0-3.44H36.4v1.392h-2.448V62.92zm5.744 0v1.392h-2.56V62.92h2.56zm0 3.44h-2.56v-1.44h2.56v1.44zm7.2-4.88h-3.488c.032-1.184.048-2.4.048-3.648h-.736c0 1.248 0 2.464-.048 3.648h-2.144v.72h2.128c-.16 3.152-.624 5.952-2.16 7.968v-.176c-1.12.128-2.272.272-3.36.384v-1.568H40.4v-.656h-3.264v-1.184h3.248v-4.672h-3.248v-1.232h3.584v-.656h-3.584V59c1.232-.144 2.384-.304 3.248-.512l-.448-.592c-1.6.368-4.576.64-6.928.784.08.16.176.432.208.608a58.31 58.31 0 003.184-.224v1.344h-3.632v.656H36.4v1.232h-3.136v4.672H36.4v1.184h-3.168v.656H36.4v1.648c-1.36.16-2.624.288-3.6.384l.128.72c1.888-.224 4.56-.544 7.136-.864a7.156 7.156 0 01-1.168 1.008c.208.112.496.352.624.512 2.944-2.112 3.664-5.76 3.856-10.016h2.752c-.192 6.24-.384 8.448-.8 8.96-.144.176-.288.208-.576.208-.304 0-1.072 0-1.904-.064.112.208.208.528.224.736.736.048 1.504.064 1.92.032.464-.032.752-.128.992-.48.528-.656.704-2.832.912-9.664v-.448zm8.704-.208c.016-.384.016-.736.016-1.104V57.72h-.784v2.448c0 .368 0 .72-.016 1.104h-5.392v.768h5.344c-.208 3.12-1.216 6.752-5.808 9.6.192.128.464.4.592.592 4.736-2.976 5.792-6.864 6.016-10.192h6.016c-.352 6.16-.72 8.496-1.328 9.088-.192.192-.4.224-.736.224-.4 0-1.456 0-2.608-.112.16.224.24.544.272.768.992.08 2.016.112 2.544.08.56-.032.88-.128 1.216-.496.704-.768 1.04-3.12 1.44-9.872 0-.112.016-.448.016-.448h-6.8z" fill="#888B8D"/></svg>