<svg width="126" height="76" fill="none" xmlns="http://www.w3.org/2000/svg"><path d="M28.27 32v-2.835h-.036a7.243 7.243 0 01-2.94 2.555c-1.19.56-2.59.84-4.2.84-2.17 0-4.118-.513-5.845-1.54-1.726-1.027-3.068-2.485-4.025-4.375-.933-1.89-1.4-4.06-1.4-6.51 0-2.427.502-4.597 1.505-6.51 1.004-1.913 2.415-3.395 4.235-4.445 1.82-1.073 3.885-1.61 6.195-1.61 2.264 0 4.235.408 5.915 1.225 1.704.793 3.104 1.995 4.2 3.605l-3.535 2.905c-.723-1.237-1.645-2.17-2.765-2.8-1.12-.63-2.438-.945-3.955-.945-1.4 0-2.636.362-3.71 1.085-1.05.7-1.866 1.692-2.45 2.975-.56 1.283-.84 2.753-.84 4.41 0 1.75.292 3.267.875 4.55.584 1.283 1.412 2.275 2.485 2.975 1.074.677 2.31 1.015 3.71 1.015 1.19 0 2.24-.245 3.15-.735.91-.513 1.599-1.213 2.065-2.1.49-.887.735-1.867.735-2.94v-.455h-5.67v-3.5h10.185V32H28.27zm25.675-8.61c0 1.797-.361 3.395-1.085 4.795a7.594 7.594 0 01-3.115 3.185c-1.33.747-2.893 1.12-4.69 1.12-1.796 0-3.36-.362-4.69-1.085a7.267 7.267 0 01-3.045-3.115c-.676-1.377-1.015-2.987-1.015-4.83 0-1.82.362-3.418 1.085-4.795.724-1.377 1.75-2.438 3.08-3.185 1.354-.77 2.929-1.155 4.725-1.155 1.797 0 3.36.373 4.69 1.12a7.016 7.016 0 013.01 3.15c.7 1.353 1.05 2.952 1.05 4.795zm-4.445.035c0-1.12-.175-2.1-.525-2.94-.35-.84-.863-1.482-1.54-1.925-.653-.467-1.423-.7-2.31-.7-.91 0-1.691.233-2.345.7-.653.467-1.155 1.12-1.505 1.96-.35.84-.525 1.808-.525 2.905 0 1.097.175 2.077.525 2.94.35.84.852 1.493 1.505 1.96.677.443 1.459.665 2.345.665.91 0 1.692-.233 2.345-.7.654-.467 1.155-1.12 1.505-1.96.35-.84.525-1.808.525-2.905zm24.885-.035c0 1.797-.362 3.395-1.085 4.795a7.592 7.592 0 01-3.115 3.185c-1.33.747-2.894 1.12-4.69 1.12-1.797 0-3.36-.362-4.69-1.085a7.267 7.267 0 01-3.045-3.115c-.677-1.377-1.015-2.987-1.015-4.83 0-1.82.361-3.418 1.085-4.795a7.648 7.648 0 013.08-3.185c1.353-.77 2.928-1.155 4.725-1.155 1.796 0 3.36.373 4.69 1.12 1.33.723 2.333 1.773 3.01 3.15.7 1.353 1.05 2.952 1.05 4.795zm-4.445.035c0-1.12-.175-2.1-.525-2.94-.35-.84-.864-1.482-1.54-1.925-.654-.467-1.424-.7-2.31-.7-.91 0-1.692.233-2.345.7-.654.467-1.155 1.12-1.505 1.96-.35.84-.525 1.808-.525 2.905 0 1.097.175 2.077.525 2.94.35.84.851 1.493 1.505 1.96.676.443 1.458.665 2.345.665.91 0 1.691-.233 2.345-.7.653-.467 1.155-1.12 1.505-1.96.35-.84.525-1.808.525-2.905zm20.264-.315c0-1.05-.175-1.983-.525-2.8-.35-.817-.852-1.447-1.505-1.89-.653-.443-1.412-.665-2.275-.665-.886 0-1.656.233-2.31.7-.63.443-1.108 1.085-1.435 1.925-.326.84-.49 1.82-.49 2.94 0 1.073.175 2.042.525 2.905.35.84.852 1.493 1.505 1.96.653.467 1.435.7 2.345.7.84 0 1.575-.222 2.205-.665.653-.467 1.144-1.108 1.47-1.925.327-.817.49-1.75.49-2.8v-.385zm4.41-8.26a56.987 56.987 0 00-.21 3.57c-.046 1.423-.07 3.092-.07 5.005v8.505c0 2.38-.7 4.177-2.1 5.39-1.4 1.213-3.453 1.82-6.16 1.82-1.563 0-2.998-.21-4.305-.63a10.642 10.642 0 01-3.535-1.925l1.575-3.115a9.352 9.352 0 002.975 1.75 10 10 0 003.36.595c1.33 0 2.322-.303 2.975-.91.677-.583 1.015-1.447 1.015-2.59a58.992 58.992 0 01.105-2.52h-.07c-.537.77-1.272 1.377-2.205 1.82-.933.42-1.983.63-3.15.63-1.586 0-2.951-.362-4.095-1.085-1.143-.723-2.018-1.75-2.625-3.08-.606-1.353-.91-2.917-.91-4.69 0-1.773.327-3.348.98-4.725.677-1.377 1.622-2.438 2.835-3.185 1.214-.77 2.614-1.155 4.2-1.155 1.167 0 2.194.233 3.08.7a5.558 5.558 0 012.17 1.925h.035l.175-2.1h3.955zm4.814-7.56h4.2V32h-4.2V7.29zm20.706 14.42c-.023-.817-.198-1.54-.525-2.17a3.618 3.618 0 00-1.365-1.47c-.56-.35-1.225-.525-1.995-.525-.747 0-1.412.163-1.995.49-.583.303-1.05.77-1.4 1.4-.35.63-.583 1.388-.7 2.275h7.98zm-3.5 10.78c-1.89 0-3.512-.35-4.865-1.05a7.219 7.219 0 01-3.115-3.08c-.7-1.377-1.05-3.01-1.05-4.9 0-1.82.35-3.418 1.05-4.795a7.433 7.433 0 013.045-3.185c1.33-.77 2.87-1.155 4.62-1.155 1.727 0 3.208.35 4.445 1.05 1.237.677 2.182 1.668 2.835 2.975.653 1.283.98 2.753.98 4.41 0 .747-.058 1.365-.175 1.855h-12.32c.093 1.003.338 1.843.735 2.52.42.677.98 1.19 1.68 1.54.7.35 1.517.525 2.45.525 1.097 0 2.1-.187 3.01-.56a6.9 6.9 0 002.485-1.715l1.82 2.66a10.686 10.686 0 01-3.5 2.205c-1.283.467-2.66.7-4.13.7z" fill="#141414"/><path d="M14.208 61.24H8.576a24.238 24.238 0 01-.288-2.816H4.64v.704h2.992c.048.752.112 1.456.224 2.112H1.888v10.928h.768V61.992h4.8c-.544 2.848-1.952 4.672-4.352 5.872.192.144.448.4.56.576 2.352-1.184 3.776-3.152 4.432-5.92.656 2.864 2 4.816 4.352 5.856.112-.208.368-.496.544-.656-2.352-.928-3.664-2.848-4.272-5.728h4.72V71c0 .256-.08.336-.352.352-.32.016-1.296.016-2.416-.016.112.24.24.592.272.816 1.328 0 2.208 0 2.672-.128.448-.144.592-.432.592-1.024v-9.76zm14.912-1.424v1.456h-2.736v-1.456h2.736zm0 3.616h-2.736v-1.504h2.736v1.504zm-3.472-2.16h-4.4v.656h4.4v1.504H22.24v.672h3.408v1.472h-3.52v.656h3.52v1.6h-4.24v.672h4.24v1.904h.736v-1.904h4.496v-.672h-4.496v-1.6h3.84v-.656h-3.84v-1.472h3.456v-2.176h1.232v-.656H29.84v-2.128h-3.456v-1.376h-.736v1.376h-3.28v.672h3.28v1.456zm-4.88 1.872l-.144.032h-1.632c.736-1.28 1.664-3.04 2.368-4.432h-4.256v.704h3.104c-.736 1.488-1.696 3.28-2.416 4.432h2.624c-.24 1.664-.64 3.088-1.168 4.288-.48-.704-.88-1.552-1.168-2.624l-.624.272c.384 1.264.864 2.272 1.456 3.056-.608 1.12-1.344 2-2.192 2.624.192.112.48.384.592.544.8-.64 1.504-1.472 2.112-2.56 1.696 1.808 4.096 2.24 7.216 2.24h4.32c.048-.192.192-.528.32-.72-.64.016-4.16.016-4.624.016-2.944-.016-5.312-.416-6.896-2.192.688-1.472 1.184-3.312 1.472-5.536l-.464-.144zm14.64 3.616v-2.048H39.6v2.048h-4.192zm0-4.736H39.6v2.032h-4.192v-2.032zm9.264 0v2.032h-4.304v-2.032h4.304zm0 4.736h-4.304v-2.048h4.304v2.048zM47.12 69h-6.752v-1.568h5.056v-6.08h-5.056v-1.408h6.176v-.736h-6.176v-1.52H39.6v1.52h-6.112v.736H39.6v1.408h-4.944v6.08H39.6V69h-6.672v.72H39.6v2.512h.768V69.72h6.752V69zm15.488-8.832c-.464-.64-1.472-1.536-2.352-2.192l-.528.4c.88.64 1.856 1.6 2.336 2.24l.544-.448zm-11.984 6.944h2.464v1.104h-2.464v-1.104zm0-1.632h2.464v1.072h-2.464V65.48zm5.536 1.072h-2.416V65.48h2.416v1.072zm0 1.664h-2.416v-1.104h2.416v1.104zm1.248 2.272v-.656h-3.632v-1.056h3.04V64.92h-3.04v-1.024h3.616v-.64h-3.616v-1.12h-.72v1.12h-3.664v.64h3.664v1.024h-3.072v3.856h3.072v1.056h-3.92v.656h3.92v1.696h.72v-1.696h3.632zm4.176-7.536c-.48 1.68-1.152 3.312-2.032 4.784-.384-1.52-.64-3.488-.784-5.776h4.352v-.672h-4.368a84.204 84.204 0 01-.08-3.584h-.768c.016 1.232.048 2.432.112 3.584h-4.208v-1.536h2.928v-.672h-2.928v-1.408h-.752v1.408h-3.264v.672h3.264v1.536H48.96v.672h9.072c.16 2.64.464 4.912.976 6.624-.816 1.2-1.76 2.256-2.848 3.024.224.128.48.352.624.544.928-.704 1.776-1.616 2.528-2.656.624 1.616 1.456 2.544 2.56 2.544.992 0 1.28-.768 1.424-3.104a1.897 1.897 0 01-.64-.384c-.096 1.984-.272 2.72-.72 2.72-.848 0-1.568-.912-2.096-2.544 1.072-1.664 1.888-3.584 2.448-5.568l-.704-.208zm13.856-5.2c-2.192 1.104-6.352 2.208-9.904 2.96.096.176.208.448.256.64 3.6-.752 7.744-1.808 10.208-2.992l-.56-.608zm-6.416 10.032c-.88 1.2-2.256 2.416-3.536 3.232.192.112.512.384.656.496 1.248-.864 2.656-2.16 3.632-3.472l-.752-.256zm8.256-1.392c.352.416.64.768.864 1.088l.64-.384c-.672-.944-2.08-2.4-3.344-3.488l-.624.32c.608.544 1.28 1.184 1.872 1.824l-8.368.576a47.004 47.004 0 007.536-4.128l-.608-.512c-.624.416-1.264.848-1.904 1.248l-4.672.24a24.759 24.759 0 003.808-2.464l-.704-.432c-1.376 1.184-3.216 2.288-3.76 2.56-.512.272-.944.448-1.28.48.096.208.224.608.256.768.304-.096.816-.16 5.136-.432-1.824 1.056-3.504 1.872-4.176 2.16-.96.448-1.728.704-2.176.768.096.208.192.592.224.768.4-.144.976-.224 5.808-.56v4.288c0 .176-.064.24-.32.256-.24.032-1.056.032-2.096 0 .128.224.272.528.304.768 1.168 0 1.92-.016 2.352-.144.4-.144.528-.368.528-.896v-4.336l4.704-.336zm-2.912 1.68c1.296 1.008 2.896 2.464 3.696 3.344l.608-.464c-.832-.864-2.432-2.272-3.728-3.264l-.576.384zm11.984-1.328c-.192-.8-.672-2.112-1.152-3.136l-.608.192c.224.512.48 1.136.672 1.712l-3.184.464c1.36-1.52 2.688-3.504 3.856-5.488l-.704-.384c-.4.768-.848 1.536-1.312 2.256l-2.112.176c1.024-1.248 2-2.912 2.816-4.56l-.736-.32c-.752 1.76-1.984 3.648-2.352 4.128-.352.48-.624.832-.88.88.08.208.208.592.256.768.192-.096.544-.176 2.56-.4-.672.992-1.296 1.776-1.584 2.096-.464.592-.832 1.024-1.136 1.088.096.192.224.592.256.768.272-.144.72-.256 4.448-.848.096.304.176.608.224.848l.672-.24zm-4.88 1.024c-.176 1.312-.448 2.736-.832 3.744.176.048.496.176.64.24.352-.976.672-2.48.88-3.856l-.688-.128zm1.68.08c.208 1.088.384 2.512.432 3.44l.656-.144c-.048-.928-.256-2.336-.448-3.408l-.64.112zm3.328 2.576c-.16-.816-.576-2.08-.96-3.056l-.592.192c.368.96.768 2.224.928 3.056l.624-.192zm6.192.768c-.4 0-.464-.08-.464-.448v-6.176l1.6-.192c.256.432.448.848.608 1.168l.704-.336c-.464-.96-1.472-2.592-2.304-3.792l-.64.256c.416.64.88 1.376 1.264 2.08l-5.504.56c.8-1.088 1.616-2.4 2.368-3.776h4.736v-.72h-4.352c.32-.592.608-1.184.896-1.808l-.816-.288a31.26 31.26 0 01-.976 2.096h-3.04v.72h2.656c-.688 1.28-1.36 2.352-1.648 2.736-.432.672-.8 1.152-1.088 1.216.112.224.24.624.272.8.224-.096.512-.16 1.888-.336-.112 3.696-.56 5.616-3.296 6.688.176.128.416.4.512.592 2.912-1.216 3.408-3.36 3.536-7.376l1.888-.208v6.096c0 .912.224 1.152 1.136 1.152h1.536c.816 0 1.024-.496 1.104-2.464-.24-.064-.528-.16-.704-.32-.032 1.792-.112 2.08-.48 2.08h-1.392z" fill="#888B8D"/></svg>