<svg width="94" height="73" fill="none" xmlns="http://www.w3.org/2000/svg"><path d="M12.915 32v-5.705H1.26v-3.5L10.815 8.13h6.615v14.49h3.885v3.675H17.43V32h-4.515zm-7.35-9.275c1.003-.023 2.1-.035 3.29-.035 1.213-.023 2.567-.047 4.06-.07v-7.91c.023-.957.058-1.983.105-3.08h-.175l-7.28 11.095zM25.249 32v-5.775h5.18V32h-5.18zm18.41-12.25c1.377 0 2.45-.385 3.22-1.155s1.155-1.797 1.155-3.08c0-1.307-.385-2.357-1.155-3.15-.77-.817-1.773-1.225-3.01-1.225-1.353 0-2.403.408-3.15 1.225-.746.793-1.12 1.902-1.12 3.325 0 1.283.35 2.287 1.05 3.01.724.7 1.727 1.05 3.01 1.05zm-4.69 6.02c.514 1.143 1.144 1.972 1.89 2.485.747.49 1.704.735 2.87.735 1.704 0 2.964-.723 3.78-2.17.817-1.447 1.272-3.745 1.365-6.895-.513 1.05-1.306 1.867-2.38 2.45-1.073.56-2.345.84-3.815.84-2.543 0-4.503-.642-5.88-1.925-1.353-1.307-2.03-3.138-2.03-5.495 0-2.427.852-4.398 2.555-5.915 1.704-1.54 3.909-2.31 6.615-2.31 3.104 0 5.484 1.015 7.14 3.045 1.68 2.007 2.52 4.923 2.52 8.75 0 4.27-.863 7.537-2.59 9.8-1.703 2.263-4.165 3.395-7.385 3.395-2.263 0-4.095-.42-5.495-1.26-1.376-.863-2.473-2.205-3.29-4.025l4.13-1.505zM69.36 36.68c.437.341.901.603 1.392.784.49.17.976.256 1.456.256.448 0 .784-.07 1.008-.208a.715.715 0 00.352-.64.618.618 0 00-.16-.432c-.096-.117-.25-.213-.464-.288-.203-.085-.667-.203-1.392-.352-.715-.15-1.259-.33-1.632-.544-.363-.213-.63-.48-.8-.8-.17-.32-.256-.699-.256-1.136 0-.49.128-.917.384-1.28.267-.363.64-.64 1.12-.832.49-.192 1.05-.288 1.68-.288.533 0 1.067.08 1.6.24.544.15 1.03.363 1.456.64l-.736 1.344a3.68 3.68 0 00-1.12-.56 3.782 3.782 0 00-1.232-.208c-.245 0-.459.032-.64.096a.817.817 0 00-.416.256.576.576 0 00-.144.4c0 .16.048.299.144.416.096.117.245.219.448.304.213.085.677.203 1.392.352.725.139 1.275.315 1.648.528.373.213.645.485.816.816.181.32.272.704.272 1.152 0 .501-.133.944-.4 1.328-.267.384-.656.683-1.168.896-.512.203-1.104.304-1.776.304-.63 0-1.248-.096-1.856-.288a6.737 6.737 0 01-1.76-.864l.784-1.392zm13.024-2.384a2.267 2.267 0 00-.24-.992 1.651 1.651 0 00-.624-.672c-.256-.16-.56-.24-.912-.24-.342 0-.646.075-.912.224-.267.139-.48.352-.64.64a2.91 2.91 0 00-.32 1.04h3.648zm-1.6 4.928c-.864 0-1.606-.16-2.224-.48a3.3 3.3 0 01-1.424-1.408c-.32-.63-.48-1.376-.48-2.24 0-.832.16-1.563.48-2.192.32-.63.784-1.115 1.392-1.456.608-.352 1.312-.528 2.112-.528.789 0 1.466.16 2.032.48.565.31.997.763 1.296 1.36.298.587.448 1.259.448 2.016 0 .341-.027.624-.08.848h-5.632c.042.459.154.843.336 1.152.192.31.448.544.768.704.32.16.693.24 1.12.24.501 0 .96-.085 1.376-.256.426-.17.805-.432 1.136-.784l.832 1.216a4.883 4.883 0 01-1.6 1.008 5.483 5.483 0 01-1.888.32zM93.19 36.84c-.384.821-.874 1.424-1.472 1.808-.586.384-1.306.576-2.16.576-.8 0-1.498-.165-2.096-.496a3.372 3.372 0 01-1.344-1.44c-.298-.63-.448-1.36-.448-2.192 0-.832.155-1.563.464-2.192a3.42 3.42 0 011.376-1.456c.598-.352 1.286-.528 2.064-.528.875 0 1.606.192 2.192.576.598.373 1.035.939 1.312 1.696l-1.744.704c-.15-.448-.373-.79-.672-1.024-.298-.235-.661-.352-1.088-.352a1.68 1.68 0 00-.992.304c-.288.192-.506.485-.656.88-.15.384-.224.837-.224 1.36 0 .512.075.965.224 1.36.16.384.384.683.672.896.288.203.63.304 1.024.304.427 0 .79-.112 1.088-.336.31-.235.555-.581.736-1.04l1.744.592z" fill="#141414"/><path d="M9.6 64.528c0 1.205-.17 2.24-.512 3.104-.341.853-.827 1.499-1.456 1.936-.63.437-1.37.656-2.224.656-.907 0-1.67-.219-2.288-.656-.619-.448-1.088-1.093-1.408-1.936-.31-.853-.464-1.877-.464-3.072 0-1.205.17-2.235.512-3.088.341-.864.821-1.515 1.44-1.952.63-.437 1.376-.656 2.24-.656.907 0 1.67.224 2.288.672.619.437 1.083 1.083 1.392 1.936.32.843.48 1.861.48 3.056zm-1.264.016c0-1.547-.245-2.71-.736-3.488-.48-.779-1.205-1.168-2.176-1.168-.97 0-1.701.39-2.192 1.168-.48.779-.72 1.941-.72 3.488s.24 2.71.72 3.488c.49.768 1.221 1.152 2.192 1.152.97 0 1.696-.384 2.176-1.152.49-.779.736-1.941.736-3.488zm3.292.576v-1.152h4.512v1.152h-4.512zm9.166-4.144c-.33.31-.736.539-1.216.688-.48.139-1.056.208-1.728.208v-.992c.597 0 1.104-.07 1.52-.208.427-.139.762-.341 1.008-.608.256-.267.437-.613.544-1.04h1.072V70h-1.2v-9.024zm12.712 3.552c0 1.205-.17 2.24-.512 3.104-.341.853-.826 1.499-1.456 1.936-.63.437-1.37.656-2.224.656-.906 0-1.67-.219-2.288-.656-.618-.448-1.088-1.093-1.408-1.936-.31-.853-.464-1.877-.464-3.072 0-1.205.17-2.235.512-3.088.342-.864.822-1.515 1.44-1.952.63-.437 1.376-.656 2.24-.656.907 0 1.67.224 2.288.672.619.437 1.083 1.083 1.392 1.936.32.843.48 1.861.48 3.056zm-1.264.016c0-1.547-.245-2.71-.736-3.488-.48-.779-1.205-1.168-2.176-1.168-.97 0-1.701.39-2.192 1.168-.48.779-.72 1.941-.72 3.488s.24 2.71.72 3.488c.49.768 1.222 1.152 2.192 1.152.97 0 1.696-.384 2.176-1.152.49-.779.736-1.941.736-3.488zm12.108-.016c0 1.205-.17 2.24-.512 3.104-.341.853-.827 1.499-1.456 1.936-.63.437-1.37.656-2.224.656-.907 0-1.67-.219-2.288-.656-.619-.448-1.088-1.093-1.408-1.936-.31-.853-.464-1.877-.464-3.072 0-1.205.17-2.235.512-3.088.341-.864.821-1.515 1.44-1.952.63-.437 1.376-.656 2.24-.656.907 0 1.67.224 2.288.672.619.437 1.083 1.083 1.392 1.936.32.843.48 1.861.48 3.056zm-1.264.016c0-1.547-.245-2.71-.736-3.488-.48-.779-1.205-1.168-2.176-1.168-.97 0-1.701.39-2.192 1.168-.48.779-.72 1.941-.72 3.488s.24 2.71.72 3.488c.49.768 1.221 1.152 2.192 1.152.97 0 1.696-.384 2.176-1.152.49-.779.736-1.941.736-3.488zm3.852-5.92h1.12v7.296l3.888-3.568h1.568l-3.008 2.672L53.786 70h-1.424l-2.704-4.24-1.6 1.424V70h-1.12V58.624zM65.588 70v-4.352c0-.47-.022-.816-.065-1.04a2.843 2.843 0 00-.192-.624 1.521 1.521 0 00-.64-.656c-.266-.15-.586-.224-.96-.224a2.06 2.06 0 00-.8.16c-.256.096-.464.23-.624.4-.277.277-.48.624-.608 1.04-.128.405-.192.955-.192 1.648V70h-1.12v-4.352c0-.47-.021-.816-.064-1.04a2.026 2.026 0 00-.192-.624 1.43 1.43 0 00-.624-.656c-.266-.15-.586-.224-.96-.224-.277 0-.549.053-.816.16-.256.096-.464.23-.624.4-.277.277-.48.624-.608 1.04-.117.405-.176.955-.176 1.648V70h-1.12v-5.056c0-.363-.005-.693-.016-.992 0-.299-.005-.576-.016-.832 0-.267-.005-.523-.016-.768h1.088l.032 1.136h.016a2.574 2.574 0 011.008-.992 2.97 2.97 0 011.456-.352c.619 0 1.142.133 1.568.4.438.256.752.64.944 1.152.31-.523.688-.912 1.136-1.168.448-.256.966-.384 1.552-.384.896 0 1.579.261 2.048.784.47.512.704 1.27.704 2.272V70h-1.12zm1.63 2.624l6.16-15.072h1.151l-6.16 15.072h-1.152zm8.345-14h1.12v3.36c0 .619-.016 1.12-.048 1.504h.016a2.688 2.688 0 011.024-.992c.426-.235.917-.352 1.472-.352.597 0 1.104.117 1.52.352.416.224.73.565.944 1.024.213.448.32 1.008.32 1.68V70h-1.12v-4.352c0-.47-.022-.816-.064-1.04a2.026 2.026 0 00-.192-.624 1.43 1.43 0 00-.624-.656c-.278-.15-.608-.224-.992-.224a2.22 2.22 0 00-.832.16c-.256.096-.47.23-.64.4-.278.277-.48.624-.608 1.04-.118.405-.176.955-.176 1.648V70h-1.12V58.624z" fill="#888B8D"/></svg>