<svg width="80" height="120" fill="none" xmlns="http://www.w3.org/2000/svg"><path d="M45.436 19.76c0 2.933-.373 5.04-1.12 6.32-.72 1.28-1.88 1.92-3.48 1.92h-4.88c-.586 0-.96-.093-1.12-.28-.16-.213-.24-.693-.24-1.44v-1.36c0-.693.08-1.133.24-1.32.187-.213.56-.32 1.12-.32h3.12c.987 0 1.48-1.213 1.48-3.64 0-1.333-.12-2.28-.36-2.84-.213-.56-.586-.84-1.12-.84h-2.72c-.56 0-.933-.08-1.12-.24-.186-.187-.28-.507-.28-.96V3.16c0-.693.094-1.173.28-1.44.187-.267.534-.4 1.04-.4h7.48c.507 0 .854.133 1.04.4.187.24.28.68.28 1.32V4.4c0 .613-.093 1.04-.28 1.28-.186.24-.506.36-.96.36h-3.56c-.24 0-.4.053-.48.16-.08.107-.12.333-.12.68v3.64c0 .48.174.72.52.72h.8c1.387 0 2.414.467 3.08 1.4.507.72.854 1.587 1.04 2.6.214.987.32 2.493.32 4.52z" fill="#4D4E53"/><path d="M11.3 77h2.41a2.57 2.57 0 002.46-1.88l.53-2.14h20.24l.47 1.91v.25l.13.19a2.56 2.56 0 002.4 1.67h2.41a2.55 2.55 0 002.55-2.53v-11a14.53 14.53 0 00-1.56-6l-.24-.42c.72-.2 1.47-.54 1.6-.88.36-.86-.07-1.56-1.2-1.48a8.906 8.906 0 00-1.58.24l-2.68-4.8a6.72 6.72 0 00-5.83-3.09H20.23a6.64 6.64 0 00-5.83 3.09l-2.68 4.8a8.759 8.759 0 00-1.58-.24c-1.12-.08-1.55.62-1.2 1.48.14.34.89.68 1.6.88l-.23.42a14.31 14.31 0 00-1.57 6v11A2.55 2.55 0 0011.3 77zm4.83-25.9a4.66 4.66 0 014.1-2.1h13.18a4.77 4.77 0 014.09 2.06l4.09 7.35a12.43 12.43 0 011.31 5v11a.54.54 0 01-.55.53h-2.41a.55.55 0 01-.53-.37l-.9-3.65H15.13l-.9 3.65a.54.54 0 01-.52.37H11.3a.55.55 0 01-.56-.53v-11a12.39 12.39 0 011.31-5l4.08-7.31z" fill="#000"/><path d="M12.79 63.08a11.6 11.6 0 004 .68 1 1 0 000-2 9.862 9.862 0 01-3.29-.54 1 1 0 00-1.3.57 1 1 0 00.59 1.29zm24.05.68a11.6 11.6 0 004-.68 1 1 0 00-.74-1.86 9.75 9.75 0 01-3.28.54 1 1 0 100 2h.02zm-15.39 2.78c1.72.29 3.468.39 5.21.3h2.14c1.173.08 2.352-.032 3.49-.33a2.62 2.62 0 001.71-1.9s.16-1.06.18-1.83a1.14 1.14 0 00-.33-.83c-.24-.25-.88-.91-7-1-6.09 0-6.73.7-7 1a1.138 1.138 0 00-.33.83c0 .68.15 1.56.18 1.78a2.23 2.23 0 001.75 1.98zm5.37-3.5a38.14 38.14 0 015.27.33c0 .46-.1.87-.1.89a.671.671 0 01-.41.38c-1.218.214-2.457.28-3.69.2h-1.23c-1.56.054-3.12-.046-4.66-.3a.53.53 0 01-.27-.13v-.13s-.07-.48-.12-1a38.243 38.243 0 015.21-.28v.04zm6.36 20.02a4.2 4.2 0 100 8.39h11.57L25.9 104.04H12.2a4.2 4.2 0 100 8.39h24.13l21-12.59h4.2V83.06H33.18zm26.33 14.78h-2.75l-.48.29-20.51 12.3H12.2a2.19 2.19 0 01-1.65-.588 2.205 2.205 0 01-.698-1.607 2.199 2.199 0 012.348-2.195h14.31l.5-.34 18.85-12.59 5.48-3.66H33.18a2.197 2.197 0 01-2.166-1.319 2.199 2.199 0 012.166-3.071h26.33v12.78zm4.1-14.78v25.18H72V83.06h-8.39zM70 106.24h-4.39V85.06H70v21.18z" fill="#000"/></svg>