<svg width="80" height="120" fill="none" xmlns="http://www.w3.org/2000/svg"><path d="M45.236 20.32c0 2.827-.374 4.813-1.12 5.96-.747 1.147-2.04 1.72-3.88 1.72h-4.44c-.56 0-.92-.093-1.08-.28-.16-.213-.24-.667-.24-1.36V25c0-.667.08-1.12.24-1.36.186-.24.546-.36 1.08-.36h3.16c.613 0 1.013-.187 1.2-.56.213-.4.32-1.267.32-2.6 0-1.973-.427-2.96-1.28-2.96h-2.16c-.48 0-.8-.107-.96-.32-.16-.213-.24-.667-.24-1.36v-1.56c0-.8.24-1.373.72-1.72l2.88-2.2c.533-.4.866-.92 1-1.56.133-.64.066-1.2-.2-1.68-.24-.48-.587-.72-1.04-.72h-3.24c-.534 0-.894-.093-1.08-.28-.16-.213-.24-.627-.24-1.24V3.08c0-.693.08-1.16.24-1.4.186-.24.546-.36 1.08-.36h4.64c1.573 0 2.706.467 3.4 1.4.693.907 1.04 2.627 1.04 5.16 0 2.853-.787 4.653-2.36 5.4.693.56 1.213 1.093 1.56 1.6.666 1.04 1 2.853 1 5.44z" fill="#4D4E53"/><path d="M58 47H22a5 5 0 00-5 5v56a5.002 5.002 0 005 5h36a5.002 5.002 0 005-5V52a5 5 0 00-5-5zm-36 2h36a3 3 0 013 3v2H19v-2a3 3 0 013-3zm39 7v47H19V56h42zm-3 55H22a2.999 2.999 0 01-3-3v-3h42v3a2.998 2.998 0 01-3 3z" fill="#000"/><path d="M40 95a15 15 0 0015-15 14.666 14.666 0 00-.47-3.65l-1.69 1.7c.099.645.152 1.297.16 1.95a13.05 13.05 0 11-4-9.39l1.42-1.42A15 15 0 1040 95z" fill="#000"/><path d="M33.88 75.36l-1.41 1.41 8.69 8.71 16.7-16.7-1.42-1.41-15.28 15.28-7.28-7.29z" fill="#000"/></svg>