<svg width="80" height="120" fill="none" xmlns="http://www.w3.org/2000/svg"><path d="M46.91 19.92c0 .853-.254 1.28-.76 1.28h-.56c-.24 0-.4.067-.48.2-.08.133-.12.387-.12.76v4.24c0 .64-.094 1.067-.28 1.28-.16.213-.507.32-1.04.32h-2.12c-.534 0-.88-.093-1.04-.28-.16-.213-.24-.653-.24-1.32v-4.32c0-.373-.054-.613-.16-.72-.08-.107-.32-.16-.72-.16h-4.92c-.854 0-1.28-.52-1.28-1.56V17.2c0-.747.826-3.24 2.48-7.48 1.626-4.16 2.733-6.72 3.32-7.68.266-.48.8-.72 1.6-.72h3.12c.88 0 1.32.573 1.32 1.72v12.68c0 .533.186.8.56.8h.48c.32 0 .533.107.64.32.133.187.2.56.2 1.12v1.96zm-6.64-4.4v-5.48c0-.32-.08-.48-.24-.48-.134 0-.227.093-.28.28l-1.8 5.72c-.187.64-.107.96.24.96h1.52c.373 0 .56-.333.56-1z" fill="#4D4E53"/><path d="M24.537 80.37a3.33 3.33 0 00-3.26-2.61h-2.34c-1.86-.13-3.28-3.55-3.21-8.44.07-4.89 1.54-8.29 3.37-8.48h2.34c1.59 0 3.3-1.19 3.33-4.42l.32-6.21c0-1.94 0-3.79-3.23-4.21h-.5c-7.23 0-11 7.63-13 14.17a32 32 0 000 18.44c1.93 6.26 5.69 13.39 12.86 13.39h.52c3.28-.29 3.76-2.14 3.36-4.21l-.56-7.42zm-1.39 9.15a2.4 2.4 0 01-1.5.49h-.38c-6 0-9.26-6.51-10.94-12a29.74 29.74 0 010-17.28c1.72-5.81 5-12.73 11.06-12.74h.34c1.38.19 1.39.33 1.4 2.17l-.4 6.12v.09c0 .9-.2 2.42-1.35 2.44h-2.35c-.149 0-.297.02-.44.06-2.86.53-4.86 4.57-4.86 10.43 0 5.86 1.8 10 4.76 10.44.143.016.287.016.43 0h2.38a1.32 1.32 0 011.28.94l.6 7.25v.22c.145.447.134.93-.03 1.37zm27.58-5.31a12 12 0 100-24 12 12 0 000 24zm0-22a10 10 0 110 20 10 10 0 010-20zm14 24h-28a8 8 0 00-8 8v19a1 1 0 001 1h42a.998.998 0 001-1v-19a8 8 0 00-8-8zm6 26h-5.83V97.59h-2v14.62h-23.77V97.59h-2v14.62h-6.4v-18a6 6 0 016-6h28a6 6 0 016 6v18z" fill="#000"/></svg>