<svg width="80" height="120" fill="none" xmlns="http://www.w3.org/2000/svg"><path d="M42.777 26.28c0 .72-.094 1.187-.28 1.4-.16.213-.534.32-1.12.32h-2c-.534 0-.894-.107-1.08-.32-.16-.24-.24-.707-.24-1.4V6.88c0-.347-.04-.573-.12-.68-.054-.107-.174-.16-.36-.16h-.28c-.374 0-.614-.093-.72-.28-.107-.187-.16-.613-.16-1.28V3.12c0-.773.093-1.267.28-1.48.213-.213.666-.32 1.36-.32h3.4c.533 0 .88.12 1.04.36.186.213.28.68.28 1.4v23.2z" fill="#4D4E53"/><path d="M56.89 49a16.85 16.85 0 0112.09 5.09 17.63 17.63 0 010 24.64l-3.33 3.43-25.6 26-25.6-26-3.38-3.43a17.63 17.63 0 010-24.64 16.9 16.9 0 0124.18 0l3.38 3.43 1.42 1.45 1.43-1.45 3.37-3.43A16.87 16.87 0 0156.94 49h-.05zm.05-2a18.9 18.9 0 00-13.51 5.69l-3.38 3.43-3.4-3.43a18.88 18.88 0 00-27 0 19.6 19.6 0 000 27.44l3.38 3.43 27 27.44 27-27.44 3.37-3.43a19.6 19.6 0 000-27.44A18.9 18.9 0 0056.89 47h.05z" fill="#000"/></svg>