<svg width="41" height="40" fill="none" xmlns="http://www.w3.org/2000/svg"><path fill-rule="evenodd" clip-rule="evenodd" d="M20.729 38c9.94 0 18-8.059 18-18s-8.06-18-18-18c-9.941 0-18 8.059-18 18s8.059 18 18 18zm0 1c10.493 0 19-8.507 19-19s-8.507-19-19-19c-10.494 0-19 8.507-19 19s8.506 19 19 19z" fill="#000"/><path d="M17.457 15.956c0 1.908-.666 2.952-1.944 2.952-1.296 0-1.962-1.044-1.962-2.952s.666-2.952 1.962-2.952c1.278 0 1.944 1.044 1.944 2.952zm1.422-.018c0-2.52-1.134-4.104-3.348-4.104-2.16 0-3.384 1.62-3.384 4.14 0 2.52 1.116 4.104 3.33 4.104 2.178 0 3.402-1.62 3.402-4.14zm5.976-3.942l-9.81 15.732h1.566l9.792-15.732h-1.548zm3.06 11.772c0 1.908-.666 2.952-1.944 2.952-1.296 0-1.962-1.044-1.962-2.952s.666-2.952 1.962-2.952c1.278 0 1.944 1.044 1.944 2.952zm1.422-.018c0-2.52-1.134-4.104-3.348-4.104-2.16 0-3.384 1.62-3.384 4.14 0 2.52 1.116 4.104 3.33 4.104 2.178 0 3.402-1.62 3.402-4.14z" fill="#000"/></svg>