<svg version="1.1" id="圖層_1" xmlns="http://www.w3.org/2000/svg" x="0" y="0" viewBox="0 0 42.2 42.2" xml:space="preserve"><style>.st5{fill:#fff;fill-opacity:.2}.st9{fill:#db4437}</style><path d="M19 22.8l16.1-18c-.3-.1-.5-.1-.8-.1H3.8C2.2 4.7.9 6 .9 7.6V38c0 .3 0 .6.1.8l18-16z" fill="#0f9d58"/><path d="M19 22.8l-16 18c.3.1.5.1.8.1h30.5c.3 0 .6 0 .8-.1L19 22.8z" fill="#4285f4"/><path d="M19 22.8l18 16.1c.1-.3.1-.5.1-.8V7.6c0-.3 0-.6-.1-.8l-18 16z" fill="#d2d2d2"/><path d="M37.1 38L20 20.9l-3.3 2.9 17.1 17.1h.5c1.5 0 2.8-1.3 2.8-2.9z" fill="#f1f1f1"/><path d="M34.3 4.7L.9 38c0 1.6 1.3 2.9 2.8 2.9h.5L37.1 8v-.4c0-1.6-1.3-2.9-2.8-2.9z" fill="#ffde48"/><path class="st5" d="M34.3 4.7H3.8C2.2 4.7.9 6 .9 7.6v.2C.9 6.2 2.2 5 3.7 5h30.5c1.6 0 2.9 1.3 2.9 2.8v-.2c0-1.6-1.3-2.9-2.8-2.9z"/><path d="M34.3 40.7H3.8c-1.6 0-2.8-1.3-2.8-2.9v.2c0 1.6 1.3 2.9 2.8 2.9h30.5c1.6 0 2.9-1.3 2.9-2.9v-.2c-.1 1.6-1.4 2.9-2.9 2.9z" fill="#263238" fill-opacity=".1"/><path d="M9 11.8v2h2.8C11.6 15.1 10.6 16 9 16c-1.7 0-3.1-1.5-3.1-3.2 0-1.7 1.4-3.2 3.1-3.2.8 0 1.5.3 2 .8l1.5-1.5c-.9-.8-2-1.3-3.5-1.3-2.9 0-5.2 2.3-5.2 5.2C3.8 15.7 6.1 18 9 18c3 0 5-2.1 5-5.1 0-.4 0-.7-.1-1.1H9z" fill="#eee"/><path class="st9" d="M31.4.9c-5.3 0-9.5 4.3-9.5 9.5 0 7.2 8 10.9 9 21.2 0 .3.3.5.6.5s.5-.2.6-.5c1-10.2 9-14 9-21.2-.2-5.2-4.4-9.5-9.7-9.5z" opacity=".25"/><path class="st9" d="M31.4.9c-5.3 0-9.5 4.3-9.5 9.5 0 7.2 8 10.9 9 21.2 0 .3.3.5.6.5s.5-.2.6-.5c1-10.2 9-14 9-21.2-.2-5.2-4.4-9.5-9.7-9.5z"/><path d="M31.4 13.8c1.8 0 3.3-1.5 3.3-3.3s-1.5-3.3-3.3-3.3-3.3 1.5-3.3 3.3 1.5 3.3 3.3 3.3z" fill="#7b231e"/><path class="st5" d="M31.4 1.1c5.2 0 9.4 4.2 9.5 9.4v-.1c0-5.3-4.3-9.5-9.5-9.5s-9.5 4.3-9.5 9.5v.1c.1-5.2 4.3-9.4 9.5-9.4z"/><path d="M32 31.3c0 .3-.3.5-.6.5s-.5-.2-.6-.5c-.9-10.2-8.9-13.9-9-21v.1c0 7.2 8 10.9 9 21.2 0 .3.3.5.6.5s.5-.2.6-.5c1-10.2 9-14 9-21.2v-.1c-.1 7.1-8.1 10.8-9 21z" fill="#3e2723" fill-opacity=".2"/><radialGradient id="SVGID_1_" cx="492.038" cy="1641.635" r="1" gradientTransform="matrix(48.7838 0 0 -48.7838 -24001.531 80090.68)" gradientUnits="userSpaceOnUse"><stop offset="0" stop-color="#fff" stop-opacity=".1"/><stop offset="1" stop-color="#fff" stop-opacity="0"/></radialGradient><path d="M31.4.9c-3.1 0-5.9 1.5-7.6 3.8h-20C2.2 4.7.9 6 .9 7.6V38c0 1.6 1.3 2.9 2.8 2.9h30.5c1.6 0 2.9-1.3 2.9-2.9V19.4c2-2.9 3.8-5.6 3.8-9 0-5.2-4.2-9.5-9.5-9.5z" fill="url(#SVGID_1_)"/></svg>