<svg width="39" height="40" fill="none" xmlns="http://www.w3.org/2000/svg"><g clip-path="url(#clip0_138_331)" clip-rule="evenodd"><path d="M37.549 19.976c0 10.07-7.956 18.236-17.767 18.236-9.814 0-17.768-8.166-17.768-18.237 0-10.07 7.954-18.236 17.768-18.236 9.811 0 17.767 8.165 17.767 18.236z" stroke="#000"/><path fill-rule="evenodd" d="M21.603 11.557c-.884 0-1.784 1-1.784 1.979 0 .558.475 1.01 1.058 1.01.855 0 1.759-.965 1.759-1.88 0-.642-.434-1.109-1.033-1.109zM18.09 27.9c1.216 0 3.078-1.184 4.16-2.124l-.34-.372c-.607.46-1.18.874-1.566.874-.462 0-.737-.31-.737-.83 0-.237.081-.644.208-1.035.086-.313.198-.659.272-.889a79.79 79.79 0 00.446-1.537c.138-.485.275-.97.418-1.447.054-.195.141-.459.238-.75a84.2 84.2 0 00.225-.694c.134-.509.276-1.046.276-1.357 0-.559-.493-.86-.958-.86-1.236 0-3.166 1.22-4.285 2.18l.367.427c.566-.456 1.002-.687 1.3-.687.44 0 .786.342.786.779 0 .127-.047.309-.138.646l-.067.25c-.075.274-.165.542-.224.724l-.235.762c-.25.826-.497 1.641-.728 2.473-.062.224-.135.45-.208.676-.188.575-.363 1.118-.363 1.683 0 .654.473 1.108 1.152 1.108z" fill="#000"/></g><defs><clipPath id="clip0_138_331"><path fill="#fff" transform="translate(.275)" d="M0 0h38.261v40H0z"/></clipPath></defs></svg>