<svg width="41" height="40" fill="none" xmlns="http://www.w3.org/2000/svg"><path d="M14.413 4.212A16.953 16.953 0 0120.73 3c4.705 0 8.964 1.911 12.042 5H28.73v1h6V3h-1v4.55a17.948 17.948 0 00-13-5.55c-2.364 0-4.62.455-6.687 1.283l.371.929zM3.729 20c0 2.232.43 4.363 1.212 6.315l-.93.372A17.943 17.943 0 012.729 20c0-5.11 2.13-9.723 5.55-13h-4.55V6h6v6h-1V7.958a16.946 16.946 0 00-5 12.042zm34 0c0-2.232-.431-4.363-1.212-6.315l.928-.372A17.944 17.944 0 0138.73 20c0 5.11-2.13 9.723-5.55 13h4.55v1h-6v-6h1v4.041c3.089-3.077 5-7.336 5-12.04zm-17 17c2.231 0 4.363-.43 6.315-1.211l.371.928A17.948 17.948 0 0120.73 38a17.95 17.95 0 01-13-5.55V37h-1v-6h6v1H8.687c3.078 3.089 7.337 5 12.042 5z" fill="#000"/><path fill-rule="evenodd" clip-rule="evenodd" d="M11.729 14.5l9-5.5 9 5.5v11l-9 5.5-9-5.5v-11zm1 1.084v9.356l7.5 4.584v-9.402l-7.5-4.538zm.53-.848l7.47 4.52L24 17.276l-7.258-4.67-3.483 2.13zm4.43-2.708l3.04-1.858 7.47 4.566-3.246 1.964-7.263-4.672zm11.04 3.556v9.356l-7.5 4.584v-9.402l7.5-4.538z" fill="#000"/></svg>