<svg width="40" height="40" fill="none" xmlns="http://www.w3.org/2000/svg"><path fill-rule="evenodd" clip-rule="evenodd" d="M4.905 3.08C2.75 5.048 2.071 7.46 2.273 10.016c.204 2.586 1.312 5.313 2.73 7.824 1.415 2.505 3.118 4.758 4.47 6.388.675.814 1.262 1.47 1.678 1.922a34.425 34.425 0 00.617.652l.033.033.008.008.002.002.002.002.002.002.007.008.032.031a31.85 31.85 0 00.625.6c.434.405 1.064.974 1.848 1.63 1.568 1.312 3.74 2.959 6.164 4.317 2.432 1.36 5.081 2.41 7.613 2.566 2.505.154 4.898-.562 6.894-2.75.946-1.131 1.12-1.964.981-2.584-.144-.644-.66-1.223-1.452-1.76l-.022-.015-5.382-4.556a2.653 2.653 0 00-3.308.406L24.34 26.25l-.44.45-.077-.08c-.376.187-.81.26-1.264.243-.623-.023-1.317-.21-2.045-.531-1.455-.641-3.128-1.848-4.784-3.54-1.657-1.69-2.831-3.392-3.45-4.869-.31-.738-.49-1.44-.508-2.068-.014-.466.06-.908.25-1.291l-.072-.073 1.897-1.938c.442-.451.731-1.07.693-1.805-.038-.738-.41-1.659-1.423-2.693l-.007-.008L9.214 3.7c-.679-.664-1.22-1.189-1.853-1.383-.567-.175-1.316-.106-2.456.762zm18.712 22.478l-.043.036c-.21.177-.525.285-.98.269-.457-.017-1.023-.16-1.677-.447-1.306-.576-2.877-1.695-4.473-3.324-1.595-1.63-2.685-3.227-3.242-4.556-.28-.665-.417-1.243-.43-1.712-.015-.467.094-.795.27-1.013l.038-.046 1.482-1.514a3.368 3.368 0 00.977-2.556c-.054-1.042-.572-2.179-1.7-3.333L9.938 3.008l-.012-.011-.081-.08c-.61-.598-1.312-1.286-2.19-1.556-.984-.303-2.07-.06-3.373.937l-.017.013-.016.014C1.813 4.54 1.053 7.28 1.276 10.095c.22 2.794 1.406 5.67 2.857 8.238 1.454 2.575 3.196 4.878 4.57 6.534.689.83 1.287 1.499 1.713 1.962a35.177 35.177 0 00.638.674l.035.036.01.01.002.002h.001l.002.003.01.01.035.035.135.132c.117.115.29.281.513.489.445.415 1.089.997 1.888 1.666 1.596 1.335 3.82 3.024 6.318 4.422 2.492 1.395 5.294 2.522 8.04 2.692 2.768.17 5.474-.635 7.701-3.083l.007-.007.007-.008c1.059-1.263 1.43-2.41 1.197-3.452-.225-1.009-.987-1.77-1.845-2.354l-5.393-4.567-.029-.018a3.653 3.653 0 00-4.588.532l-1.483 1.515z" fill="#000"/></svg>