<svg width="40" height="40" fill="none" xmlns="http://www.w3.org/2000/svg"><path d="M12.994 9.49a3.515 3.515 0 11-7.017.413 3.515 3.515 0 017.017-.412zm-1.006 0a2.497 2.497 0 10-4.995.001 2.497 2.497 0 004.995 0z" fill="#000"/><path d="M20 25.988h3.988v4l-.994-.994h4v4l-1.006-1.006h4V36l-.994-.994h6.994l-.994.994v-6.994l.29.703L24.4 18.824l-.46-.46.242-.606a11.71 11.71 0 00.29-7.722 11.697 11.697 0 00-4.654-6.145 11.71 11.71 0 00-7.49-1.843 11.71 11.71 0 00-6.958 3.31 11.71 11.71 0 00-3.31 6.97 11.649 11.649 0 001.843 7.49 11.698 11.698 0 006.146 4.643c2.529.772 5.245.67 7.709-.291l.363.933a12.581 12.581 0 01-8.363.303 12.642 12.642 0 01-6.667-5.054 12.642 12.642 0 01-2.012-8.146 12.727 12.727 0 013.6-7.564 12.703 12.703 0 017.576-3.612c2.824-.254 5.757.412 8.133 2a12.74 12.74 0 015.067 6.68 12.63 12.63 0 01-.316 8.363L36.024 28.97v7.006H29.03V32.97h-3.006v-2.994H23.03V26.97h-3.006V26h-.036l.012-.012z" fill="#000"/></svg>