<svg width="46" height="40" fill="none" xmlns="http://www.w3.org/2000/svg"><path fill-rule="evenodd" clip-rule="evenodd" d="M20.586 10.286V0h1.143v10.286h-1.143zM24.014 0v10.286h1.143V0h-1.143zm3.429 0l3.634 10.286h1.2L28.654 0h-1.211zM17.077 0l-3.623 10.286h1.212L18.3 0h-1.223zM9.843 24L4.586 38.857h16V19.43h1.143V40H2.974l.526-1.52L8.61 24h1.234zm.8-2.286l1.623-4.571H33.5l1.623 4.571h6.034v-4.571h4.572V16h-5.715v4.571H35.9L34.3 16H11.443L9.82 20.571H5.73V16H.014v1.143h4.572v4.571h6.057zm35.086-9.143H.014v1.143H45.73v-1.143zM25.157 19.43h-1.143V40H42.77l-.538-1.52L37.123 24H35.9l5.257 14.857h-16V19.43z" fill="#000"/></svg>