<svg width="42" height="40" fill="none" xmlns="http://www.w3.org/2000/svg"><path clip-rule="evenodd" d="M27.918 16.761c-.45-.072-5.287-.09-6.81-.096h-.214c-1.524.005-6.36.024-6.81.096-.589.094-1.261-.035-1.235 1.007.029 1.041.226 2.493.226 2.493s.113 1.483 1.322 1.577c1.392.11 4.282.436 6.603.38 2.32.056 5.215-.27 6.608-.38 1.208-.094 1.321-1.577 1.321-1.577s.197-1.452.226-2.493c.024-1.042-.646-.913-1.237-1.007z" stroke="#000"/><path clip-rule="evenodd" d="M39.533 17.9v12.257c0 .938-.753 1.703-1.688 1.703h-2.614a1.69 1.69 0 01-1.617-1.221c-.003-.005-.003-.01-.003-.013l-.031-.125c-.003-.002-.003-.005-.003-.008l-.743-3.104H9.17l-.748 3.11v.002l-.03.125a1.69 1.69 0 01-1.619 1.234H4.155a1.696 1.696 0 01-1.685-1.703V17.899c0-1.801.698-4.564 1.56-6.138l4.443-8.167C9.809 1.382 12.063.727 13.849.727h14.305c1.783 0 4.232.782 5.376 2.867l4.444 8.167c.856 1.574 1.56 4.337 1.56 6.138z" stroke="#000" stroke-linecap="round"/><path fill-rule="evenodd" clip-rule="evenodd" d="M4.947 8.9c.207.202.42.528.42.961v.304l-.238.354-.687 1.26h-.776a3.967 3.967 0 01-1.506-.261c-.42-.163-.942-.457-1.233-.956l-.006-.01a1.397 1.397 0 01-.15-1.043c.095-.37.326-.633.55-.802.428-.322.994-.44 1.514-.453m2.112.645a1.971 1.971 0 00-.65-.41l.65.41zm-.65-.41c-.428-.172-.946-.248-1.462-.235l1.461.235zm34.872-.235c-.516-.013-1.034.063-1.461.235l1.461-.235zm0 0c.52.013 1.086.13 1.513.453.225.17.456.432.551.802.099.385.015.751-.15 1.043l-.006.01c-.291.499-.813.793-1.233.956a3.968 3.968 0 01-1.505.261h-.835l-.723-1.322-.143-.436v-.16c0-.433.212-.76.419-.962.2-.197.44-.325.65-.41M5.685 15.82l-.01-.003-.31.95.002.002c.39.127 1.072.35 2.278.495 1.518.181 1.952.192 2.231.198l.077.002.03-1-.075-.001c-.254-.006-.664-.015-2.143-.192m-2.08-.45c.358.116.97.316 2.08.45l-2.08-.45zm29.977-.001l.01-.003.31.95-.002.002c-.39.127-1.072.35-2.278.495-1.517.181-1.951.192-2.231.198l-.077.002-.029-1 .074-.001c.254-.006.664-.015 2.144-.192m2.08-.45c-.359.116-.971.316-2.08.45l2.08-.45z" fill="#000"/></svg>