<svg width="41" height="40" fill="none" xmlns="http://www.w3.org/2000/svg"><g clip-path="url(#clip0_138_325)"><path d="M1.109 6.667a2.5 2.5 0 012.5-2.5h33.333a2.5 2.5 0 012.5 2.5v30a2.5 2.5 0 01-2.5 2.5H3.609a2.5 2.5 0 01-2.5-2.5v-30z" stroke="#000"/><path d="M9.576 28.417c.35 2.283 1.783 3.516 4.633 3.516 2.784 0 4.45-1.383 4.45-3.533 0-1.417-.833-2.35-2.283-2.6v-.05c1.15-.367 1.967-1.267 1.967-2.633 0-1.85-1.534-3.084-4.134-3.084-2.316 0-3.916 1.1-4.366 3.417l2.116.333c.234-1.416 1-2.05 2.217-2.05 1.133 0 1.917.6 1.917 1.584 0 .483-.117.85-.4 1.133-.484.483-1.184.6-1.984.6h-1.016v1.667h1.25c1.533-.017 2.383.55 2.383 1.75 0 1.083-.733 1.766-2.05 1.766-1.5 0-2.3-.816-2.517-2.266l-2.183.45zM28.287 26c0 2.65-.783 4.067-2.533 4.067s-2.517-1.417-2.517-4.1c0-2.65.767-4.067 2.517-4.067s2.533 1.417 2.533 4.1zm2.283-.05c0-3.75-1.666-5.917-4.75-5.917-3.066 0-4.866 2.234-4.866 5.984s1.666 5.916 4.75 5.916c3.066 0 4.866-2.233 4.866-5.983zM10.275.833a.833.833 0 10-1.666 0V7.5a.833.833 0 001.666 0V.833zm21.667 0a.833.833 0 00-1.667 0V7.5a.833.833 0 101.667 0V.833zm6.667 10.834H1.942v1.666H38.61v-1.666z" fill="#000"/></g><defs><clipPath id="clip0_138_325"><path fill="#fff" transform="translate(.275)" d="M0 0h40v40H0z"/></clipPath></defs></svg>