<svg width="41" height="40" fill="none" xmlns="http://www.w3.org/2000/svg"><path d="M30.14 25.255h-1.012c-.369 0-.69.004-1.062.009l-.212.003v-.012c1.806-1.404 2.142-1.74 2.142-2.508 0-.69-.473-1.206-1.37-1.206-.772 0-1.37.486-1.37 1.212 0 .174.03.342.083.456h.52a1.52 1.52 0 01-.071-.474c0-.39.275-.756.82-.756.562 0 .843.336.843.792 0 .612-.323.912-2.285 2.49v.462h2.973v-.468z" fill="#000"/><path fill-rule="evenodd" clip-rule="evenodd" d="M19.956 3.982c-5.581 0-10.165 4.242-10.659 9.663a7.36 7.36 0 00-.529-.02C3.935 13.625 0 17.517 0 22.322c0 4.481 3.411 8.141 7.783 8.627v.069h23.361l-1.257-1h.011l1.258 1c4.828-.007 8.756-3.896 8.756-8.697 0-4.804-3.935-8.696-8.768-8.696a7.6 7.6 0 00-.529.02c-.494-5.421-5.077-9.663-10.659-9.663zm4.076 20.523l5.866 5.513h.261v-.059l.528.03c.081.006.146.01.204.016.09.007.162.013.253.013 4.293 0 7.771-3.456 7.771-7.697 0-4.24-3.478-7.696-7.77-7.696-.314 0-.623.027-.934.064l-.535.064-.022-.54c-.213-5.129-4.465-9.23-9.698-9.23-5.232 0-9.485 4.101-9.697 9.23l-.008.19-.015.35-.535-.064a7.79 7.79 0 00-.933-.064c-4.293 0-7.77 3.456-7.77 7.697 0 4.095 3.229 7.432 7.312 7.668l.47.027h21.107l-5.86-5.51a4.004 4.004 0 01-1.777.396c-2.322 0-3.901-1.644-3.901-4.26 0-.215.01-.423.032-.625l-1.663-1.322-.429.17c-.395-1.007-1.268-1.595-2.31-1.595-1.46 0-2.68 1.164-2.68 3.36 0 2.016 1.053 3.348 2.729 3.348 1.184 0 2.01-.588 2.381-1.644l.921.288c-.514 1.464-1.687 2.28-3.326 2.28-2.226 0-3.794-1.644-3.794-4.26 0-2.814 1.801-4.176 3.577-4.278l-3.536-1.962 3.538 1.962c.072-.004.143-.006.215-.006 1.472 0 2.668.78 3.219 2.136l-.502.2 1.66 1.32c.242-2.225 1.776-3.656 3.892-3.656 2.322 0 3.901 1.644 3.901 4.26 0 1.843-.83 3.24-2.142 3.886zm-.84-.668c1.197-.392 1.893-1.575 1.893-3.206 0-2.016-1.065-3.36-2.823-3.36-1.771 0-2.825 1.344-2.825 3.36 0 .076.002.152.005.227l3.75 2.98zm-3.75-2.975c.078 1.886 1.117 3.117 2.82 3.117.334 0 .643-.048.924-.14l-3.744-2.977z" fill="#000"/></svg>