<svg width="100" height="8" fill="none" xmlns="http://www.w3.org/2000/svg"><g clip-path="url(#clip0_239_198)"><path d="M1.694 1.329l3.442 6.444 3.984.003 3.384-6.448h1.695V.162H9.1v1.167h1.473L8.108 6.022 5.612 1.33l1.79-.001V.16h-7.4L0 1.329h1.694zm43.85-.003V.161h6.824v1.165h-1.7v5.26h1.58c1.46 0 2.416-.993 2.416-2.342h1.127v3.523H45.543V6.589h1.721V1.326h-1.72z" fill="#231815"/><path d="M28.997 0C25.57 0 23.75 1.762 23.75 3.973 23.75 6.214 25.502 8 29.017 8c3.515 0 5.246-1.787 5.246-4.028 0-2.21-1.839-3.972-5.266-3.972zm-.035 6.79c-1.251-.023-1.802-1.448-1.778-2.864.025-1.467.706-2.746 1.878-2.725 1.173.02 1.79 1.325 1.767 2.79-.028 1.384-.582 2.824-1.867 2.8z" fill="#000"/><path d="M67.428 1.329l3.441 6.444 3.986.003 3.383-6.448h1.695V.162h-5.1v1.167h1.473l-2.463 4.694-2.497-4.693 1.79-.001V.16h-7.4l-.002 1.168h1.694z" fill="#231815"/><path d="M94.733 0c-3.427 0-5.247 1.762-5.247 3.973C89.486 6.214 91.24 8 94.752 8c3.514 0 5.247-1.787 5.247-4.028 0-2.21-1.836-3.972-5.266-3.972zm-.038 6.79c-1.252-.023-1.798-1.448-1.777-2.864.024-1.467.705-2.746 1.878-2.725 1.172.02 1.787 1.325 1.765 2.79-.023 1.384-.577 2.824-1.866 2.8z" fill="#000"/></g><defs><clipPath id="clip0_239_198"><path fill="#fff" d="M0 0h100v8H0z"/></clipPath></defs></svg>